<svg viewBox="0 0 100 100" xmlns="http://www.w3.org/2000/svg" xmlns:xlink="http://www.w3.org/1999/xlink" width="100.000000" height="100.000000" fill="none" customFrame="#000000">
	<defs>
		<radialGradient id="paint_radial_0" cx="0" cy="0" r="1" gradientUnits="userSpaceOnUse" gradientTransform="matrix(89.0902,0,0,89.0902,50,12.2127)">
			<stop stop-color="rgb(34,203,255)" offset="0" stop-opacity="1" />
			<stop stop-color="rgb(16,145,238)" offset="1" stop-opacity="1" />
		</radialGradient>
		<linearGradient id="paint_linear_0" x1="100" x2="0" y1="42.930954" y2="42.930954" gradientUnits="userSpaceOnUse">
			<stop stop-color="rgb(0,0,0)" offset="0" stop-opacity="0.101960786" />
			<stop stop-color="rgb(0,0,0)" offset="0" stop-opacity="0.200000003" />
			<stop stop-color="rgb(0,0,0)" offset="0.384022534" stop-opacity="0" />
			<stop stop-color="rgb(0,0,0)" offset="0.629986465" stop-opacity="0" />
			<stop stop-color="rgb(0,0,0)" offset="0.63041693" stop-opacity="0" />
			<stop stop-color="rgb(0,0,0)" offset="1" stop-opacity="0.101960786" />
		</linearGradient>
		<radialGradient id="paint_radial_1" cx="0" cy="0" r="1" gradientUnits="userSpaceOnUse" gradientTransform="matrix(76.2322,-72.0427,72.0427,76.2322,21.9189,14.323)">
			<stop stop-color="rgb(255,76,100)" offset="0" stop-opacity="1" />
			<stop stop-color="rgb(250,40,64)" offset="1" stop-opacity="1" />
		</radialGradient>
		<radialGradient id="paint_radial_2" cx="0" cy="0" r="1" gradientUnits="userSpaceOnUse" gradientTransform="matrix(0,-40.5161,40.5161,0,50,-0.00112915)">
			<stop stop-color="rgb(200,200,200)" offset="0" stop-opacity="0.278431386" />
			<stop stop-color="rgb(151,151,151)" offset="1" stop-opacity="0" />
		</radialGradient>
		<linearGradient id="paint_custom_gradient_0">
			<stop stop-color="rgb(47,26,103)" offset="0.104864262" stop-opacity="1" />
			<stop stop-color="rgb(133,96,255)" offset="0.252046734" stop-opacity="1" />
			<stop stop-color="rgb(78,75,170)" offset="0.39241913" stop-opacity="1" />
			<stop stop-color="rgb(46,45,60)" offset="0.50635463" stop-opacity="1" />
			<stop stop-color="rgb(210,196,246)" offset="0.630931139" stop-opacity="1" />
			<stop stop-color="rgb(72,44,140)" offset="0.750277758" stop-opacity="1" />
			<stop stop-color="rgb(145,129,174)" offset="0.876717627" stop-opacity="1" />
			<stop stop-color="rgb(51,19,111)" offset="1" stop-opacity="1" />
		</linearGradient>
		<mask id="outline_mask_0">
			<path d="M85.9232 2.80999C80.4083 -1.65059e-06 73.1889 -3.60619e-06 58.75 -3.60619e-06L41.25 -3.60619e-06C26.8111 -1.69986e-06 19.5917 -1.28379e-06 14.0768 2.80999C9.22575 5.28172 5.28172 9.22575 2.80999 14.0768C-1.80309e-06 19.5917 -1.80309e-06 26.8111 -1.80309e-06 41.25L-1.80309e-06 58.75C-1.80309e-06 73.1889 -1.80309e-06 80.4083 2.80999 85.9232C5.28172 90.7743 9.22575 94.7183 14.0768 97.19C19.5917 100 26.8111 100 41.25 100L58.75 100C73.1889 100 80.4083 100 85.9232 97.19C90.7743 94.7183 94.7183 90.7743 97.19 85.9232C100 80.4083 100 73.1889 100 58.75L100 41.25C100 26.8111 100 19.5917 97.19 14.0768C94.7183 9.22575 90.7742 5.28172 85.9232 2.80999ZM41.25 0.19531L58.75 0.195309C63.2611 0.195309 66.4473 0.209937 68.3086 0.239192C71.284 0.285958 73.7369 0.388198 75.6672 0.54591C77.8582 0.724923 79.7479 1.00148 81.3365 1.37557C82.9991 1.76712 84.4985 2.30327 85.8345 2.98401C87.0354 3.5959 88.1745 4.29291 89.2518 5.07505C90.3338 5.86059 91.3534 6.73199 92.3107 7.68926C93.2641 8.64263 94.1324 9.65791 94.9155 10.7351C95.7014 11.8162 96.4016 12.9597 97.016 14.1655C97.6968 15.5016 98.2329 17.0009 98.6244 18.6635C98.9985 20.2523 99.2751 22.1421 99.4541 24.3328C99.6117 26.2618 99.7139 28.7147 99.7608 31.6914C99.7901 33.5494 99.8047 36.7356 99.8047 41.25L99.8047 58.75C99.8047 63.2643 99.7901 66.4505 99.7608 68.3086C99.7139 71.2853 99.6117 73.7382 99.4541 75.6672C99.2752 77.8579 98.9986 79.7477 98.6244 81.3365C98.2329 82.9991 97.6968 84.4984 97.016 85.8345C96.4042 87.0353 95.7073 88.1742 94.9252 89.2514C94.1396 90.3336 93.2681 91.3533 92.3107 92.3107C91.3588 93.2628 90.3452 94.1299 89.2697 94.9121C88.1872 95.6994 87.0422 96.4007 85.8345 97.016C84.4984 97.6968 82.999 98.2329 81.3365 98.6244C79.7476 98.9985 77.8579 99.2751 75.6672 99.4541C73.7382 99.6116 71.2853 99.7139 68.3086 99.7608C66.4506 99.7901 63.2644 99.8047 58.75 99.8047L41.25 99.8047C36.7355 99.8047 33.5493 99.7901 31.6914 99.7608C28.7147 99.7138 26.2618 99.6116 24.3328 99.4541C22.1421 99.275 20.2523 98.9985 18.6635 98.6244C17.0009 98.2329 15.5016 97.6968 14.1655 97.016C12.9622 96.4029 11.8211 95.7043 10.7419 94.9204C9.66226 94.136 8.6447 93.2661 7.68926 92.3107C6.734 91.3555 5.86423 90.3381 5.07996 89.2586C4.29585 88.1793 3.5972 87.038 2.98401 85.8345C2.30327 84.4985 1.76712 82.9991 1.37558 81.3365C1.00148 79.7479 0.724924 77.8581 0.545912 75.6672C0.388199 73.7369 0.28596 71.284 0.239193 68.3086C0.209938 66.4473 0.195311 63.2611 0.195311 58.75L0.195311 41.25C0.19531 36.7389 0.209938 33.5527 0.239193 31.6914C0.285959 28.716 0.388198 26.2631 0.545911 24.3328C0.724922 22.1419 1.00148 20.2521 1.37558 18.6635C1.76713 17.0008 2.30328 15.5015 2.98401 14.1655C3.59716 12.9621 4.29575 11.8208 5.07979 10.7416C5.86411 9.66205 6.73393 8.64459 7.68926 7.68926C8.64443 6.73409 9.6617 5.86441 10.7411 5.0802C11.8204 4.29599 12.9619 3.59727 14.1655 2.98401C15.5015 2.30328 17.0008 1.76713 18.6635 1.37558C20.2521 1.00148 22.1418 0.724922 24.3328 0.545911C26.2632 0.388198 28.716 0.285959 31.6914 0.239193C33.5527 0.209938 36.7389 0.19531 41.25 0.19531Z" fill="rgb(255,255,255)" fill-rule="evenodd" />
		</mask>
		<clipPath id="clipPath_0">
			<rect width="100.000000" height="100.000000" x="0.000000" y="0.000000" rx="25.781250" fill="rgb(255,255,255)" />
		</clipPath>
		<linearGradient id="paint_linear_1" x1="22.0397072" x2="75.0330658" y1="72.9252167" y2="94.4421844" gradientUnits="userSpaceOnUse">
			<stop stop-color="rgb(131,131,131)" offset="0" stop-opacity="1" />
			<stop stop-color="rgb(135,135,135)" offset="0.493670881" stop-opacity="0.493670881" />
			<stop stop-color="rgb(131,131,131)" offset="1" stop-opacity="0.910000026" />
		</linearGradient>
		<linearGradient id="paint_linear_2" x1="33.9810524" x2="67.7641983" y1="52.1321678" y2="60.4527054" gradientUnits="userSpaceOnUse">
			<stop stop-color="rgb(131,131,131)" offset="0" stop-opacity="1" />
			<stop stop-color="rgb(135,135,135)" offset="0.493670881" stop-opacity="0.493670881" />
			<stop stop-color="rgb(131,131,131)" offset="1" stop-opacity="0.910000026" />
		</linearGradient>
		<g id="pixso_custom_effect_0">
			<effect x="0.000000" y="3.906250" visibility="visible" fill="rgb(207,0,26)" fill-opacity="0.5" effectType="dropShadow" stdDeviation="7.8125" radius="0" />
		</g>
		<filter id="filter_0" width="80.078125" height="80.078125" x="9.960938" y="-36.132812" filterUnits="userSpaceOnUse" customEffect="url(#pixso_custom_effect_0)" color-interpolation-filters="sRGB">
			<feFlood flood-opacity="0" result="BackgroundImageFix" />
			<feColorMatrix result="hardAlpha" in="SourceAlpha" type="matrix" values="0 0 0 0 0 0 0 0 0 0 0 0 0 0 0 0 0 0 127 0 " />
			<feOffset dx="0.000000" dy="3.906250" in="hardAlpha" />
			<feGaussianBlur stdDeviation="2.60416675" />
			<feComposite k2="-1" k3="1" in2="hardAlpha" operator="out" />
			<feColorMatrix type="matrix" values="0 0 0 0 0.811765 0 0 0 0 0 0 0 0 0 0.101961 0 0 0 0.5 0 " />
			<feBlend result="effect_dropShadow_1" in2="BackgroundImageFix" mode="normal" />
			<feBlend result="shape" in="SourceGraphic" in2="effect_dropShadow_1" mode="normal" />
		</filter>
		<g id="pixso_custom_effect_1">
			<effect visibility="visible" effectType="backgroundBlur" saturation="0" stdDeviation="3.23525691" />
			<effect x="0.000000" y="-1.171875" visibility="hidden" fill="rgb(255,48,48)" fill-opacity="0.25" effectType="innerShadow" stdDeviation="3.12499928" radius="0" />
		</g>
		<filter id="filter_1" width="64.453125" height="64.453125" x="17.773438" y="-32.226562" filterUnits="userSpaceOnUse" customEffect="url(#pixso_custom_effect_1)" color-interpolation-filters="sRGB">
			<feFlood flood-opacity="0" result="BackgroundImageFix" />
			<feBlend result="shape" in="SourceGraphic" in2="BackgroundImageFix" mode="normal" />
		</filter>
		<clipPath id="outline_mask_1" transform="matrix(1,0,0,1,-17.7734,32.2266)">
			<path d="M50 -32.2266C67.7982 -32.2266 82.2266 -17.7982 82.2266 -7.62939e-06C82.2266 17.7982 67.7982 32.2265 50 32.2265C32.2018 32.2265 17.7734 17.7982 17.7734 -7.62939e-06C17.7734 -17.7982 32.2018 -32.2266 50 -32.2266Z" fill="rgb(255,255,255)" fill-rule="evenodd" />
			<path d="M50 -21.2891C38.2424 -21.2891 28.7109 -11.7576 28.7109 -7.62939e-06C28.7109 11.7576 38.2424 21.289 50 21.289C61.7576 21.289 71.2891 11.7576 71.2891 -7.62939e-06C71.2891 -11.7576 61.7576 -21.2891 50 -21.2891Z" fill="rgb(255,255,255)" fill-rule="evenodd" />
		</clipPath>
		<radialGradient id="paint_radial_3" cx="0" cy="0" r="1" gradientUnits="userSpaceOnUse" gradientTransform="matrix(-57.8879,0,0,-37.9594,50,32.2265)">
			<stop stop-color="rgb(255,255,255)" offset="0" stop-opacity="1" />
			<stop stop-color="rgb(255,255,255)" offset="0.556913078" stop-opacity="0.800000012" />
			<stop stop-color="rgb(243,250,255)" offset="1" stop-opacity="0.400000006" />
		</radialGradient>
		<linearGradient id="paint_linear_3" x1="21.9188919" x2="77.8050842" y1="-22.536974" y2="-22.536974" gradientUnits="userSpaceOnUse">
			<stop stop-color="rgb(0,0,0)" offset="0" stop-opacity="0" />
			<stop stop-color="rgb(0,0,0)" offset="0.166996807" stop-opacity="0.501960814" />
			<stop stop-color="rgb(0,0,0)" offset="0.81992799" stop-opacity="0.501960814" />
			<stop stop-color="rgb(0,0,0)" offset="1" stop-opacity="0" />
		</linearGradient>
		<g id="pixso_custom_effect_2">
			<effect x="0.000000" y="1.562500" visibility="visible" fill="rgb(254,140,140)" fill-opacity="1" effectType="innerShadow" stdDeviation="7.42187357" radius="0" />
		</g>
		<filter id="filter_2" width="64.453125" height="64.453125" x="17.773438" y="-32.226562" filterUnits="userSpaceOnUse" customEffect="url(#pixso_custom_effect_2)" color-interpolation-filters="sRGB">
			<feFlood flood-opacity="0" result="BackgroundImageFix" />
			<feBlend result="shape" in="SourceGraphic" in2="BackgroundImageFix" mode="normal" />
			<feColorMatrix result="hardAlpha" in="SourceAlpha" type="matrix" values="0 0 0 0 0 0 0 0 0 0 0 0 0 0 0 0 0 0 100 0 " />
			<feOffset dx="0.000000" dy="1.562500" in="hardAlpha" />
			<feGaussianBlur stdDeviation="2.47395778" />
			<feComposite k2="-1" k3="1" in2="hardAlpha" operator="arithmetic" />
			<feColorMatrix type="matrix" values="0 0 0 0 0.996078 0 0 0 0 0.54902 0 0 0 0 0.54902 0 0 0 1 0 " />
			<feBlend result="effect_innerShadow_1" in2="shape" mode="normal" />
		</filter>
		<linearGradient id="paint_linear_4" x1="42.9387131" x2="77.4404907" y1="-32.2265625" y2="23.8412628" gradientUnits="userSpaceOnUse">
			<stop stop-color="rgb(255,255,255)" offset="0" stop-opacity="1" />
			<stop stop-color="rgb(255,237,237)" offset="1" stop-opacity="0" />
		</linearGradient>
		<g id="pixso_custom_effect_3">
			<effect x="0.000000" y="-1.953125" visibility="visible" fill="rgb(255,244,216)" fill-opacity="0.899999976" effectType="innerShadow" stdDeviation="0.781249821" radius="0" />
			<effect x="1.953125" y="0.000000" visibility="visible" fill="rgb(255,255,255)" fill-opacity="0.699999988" effectType="innerShadow" stdDeviation="0.781249821" radius="0" />
			<effect x="-1.953125" y="0.000000" visibility="visible" fill="rgb(255,255,223)" fill-opacity="0.5" effectType="innerShadow" stdDeviation="0.781249821" radius="0" />
			<effect x="0.000000" y="1.953125" visibility="visible" fill="rgb(255,255,255)" fill-opacity="0.800000012" effectType="innerShadow" stdDeviation="0.781249821" radius="0" />
		</g>
		<filter id="filter_3" width="64.453125" height="64.453125" x="17.773438" y="-32.226562" filterUnits="userSpaceOnUse" customEffect="url(#pixso_custom_effect_3)" color-interpolation-filters="sRGB">
			<feFlood flood-opacity="0" result="BackgroundImageFix" />
			<feBlend result="shape" in="SourceGraphic" in2="BackgroundImageFix" mode="normal" />
			<feColorMatrix result="hardAlpha" in="SourceAlpha" type="matrix" values="0 0 0 0 0 0 0 0 0 0 0 0 0 0 0 0 0 0 100 0 " />
			<feOffset dx="0.000000" dy="-1.953125" in="hardAlpha" />
			<feGaussianBlur stdDeviation="0.260416597" />
			<feComposite k2="-1" k3="1" in2="hardAlpha" operator="arithmetic" />
			<feColorMatrix type="matrix" values="0 0 0 0 1 0 0 0 0 0.956863 0 0 0 0 0.847059 0 0 0 0.9 0 " />
			<feBlend result="effect_innerShadow_1" in2="shape" mode="normal" />
			<feColorMatrix result="hardAlpha" in="SourceAlpha" type="matrix" values="0 0 0 0 0 0 0 0 0 0 0 0 0 0 0 0 0 0 100 0 " />
			<feOffset dx="1.953125" dy="0.000000" in="hardAlpha" />
			<feGaussianBlur stdDeviation="0.260416597" />
			<feComposite k2="-1" k3="1" in2="hardAlpha" operator="arithmetic" />
			<feColorMatrix type="matrix" values="0 0 0 0 1 0 0 0 0 1 0 0 0 0 1 0 0 0 0.7 0 " />
			<feBlend result="effect_innerShadow_2" in2="effect_innerShadow_1" mode="normal" />
			<feColorMatrix result="hardAlpha" in="SourceAlpha" type="matrix" values="0 0 0 0 0 0 0 0 0 0 0 0 0 0 0 0 0 0 100 0 " />
			<feOffset dx="-1.953125" dy="0.000000" in="hardAlpha" />
			<feGaussianBlur stdDeviation="0.260416597" />
			<feComposite k2="-1" k3="1" in2="hardAlpha" operator="arithmetic" />
			<feColorMatrix type="matrix" values="0 0 0 0 1 0 0 0 0 1 0 0 0 0 0.87451 0 0 0 0.5 0 " />
			<feBlend result="effect_innerShadow_3" in2="effect_innerShadow_2" mode="normal" />
			<feColorMatrix result="hardAlpha" in="SourceAlpha" type="matrix" values="0 0 0 0 0 0 0 0 0 0 0 0 0 0 0 0 0 0 100 0 " />
			<feOffset dx="0.000000" dy="1.953125" in="hardAlpha" />
			<feGaussianBlur stdDeviation="0.260416597" />
			<feComposite k2="-1" k3="1" in2="hardAlpha" operator="arithmetic" />
			<feColorMatrix type="matrix" values="0 0 0 0 1 0 0 0 0 1 0 0 0 0 1 0 0 0 0.8 0 " />
			<feBlend result="effect_innerShadow_4" in2="effect_innerShadow_3" mode="normal" />
		</filter>
		<linearGradient id="paint_linear_5" x1="42.9387131" x2="77.4404907" y1="-32.2265625" y2="23.8412628" gradientUnits="userSpaceOnUse">
			<stop stop-color="rgb(255,255,255)" offset="0" stop-opacity="1" />
			<stop stop-color="rgb(255,237,237)" offset="1" stop-opacity="0" />
		</linearGradient>
		<g id="pixso_custom_effect_4">
			<effect x="0.000000" y="-0.781250" visibility="visible" fill="rgb(255,122,122)" fill-opacity="1" effectType="innerShadow" stdDeviation="0.390624911" radius="0" />
			<effect x="0.000000" y="0.781250" visibility="visible" fill="rgb(255,150,150)" fill-opacity="1" effectType="innerShadow" stdDeviation="0.390624911" radius="0" />
			<effect x="0.781250" y="0.000000" visibility="visible" fill="rgb(255,150,150)" fill-opacity="1" effectType="innerShadow" stdDeviation="0.390624911" radius="0" />
			<effect x="-0.781250" y="0.000000" visibility="visible" fill="rgb(255,150,150)" fill-opacity="1" effectType="innerShadow" stdDeviation="0.390624911" radius="0" />
		</g>
		<filter id="filter_4" width="64.453125" height="64.453125" x="17.773438" y="-32.226562" filterUnits="userSpaceOnUse" customEffect="url(#pixso_custom_effect_4)" color-interpolation-filters="sRGB">
			<feFlood flood-opacity="0" result="BackgroundImageFix" />
			<feBlend result="shape" in="SourceGraphic" in2="BackgroundImageFix" mode="normal" />
			<feColorMatrix result="hardAlpha" in="SourceAlpha" type="matrix" values="0 0 0 0 0 0 0 0 0 0 0 0 0 0 0 0 0 0 127 0 " />
			<feOffset dx="0.000000" dy="-0.781250" in="hardAlpha" />
			<feGaussianBlur stdDeviation="0.130208299" />
			<feComposite k2="-1" k3="1" in2="hardAlpha" operator="arithmetic" />
			<feColorMatrix type="matrix" values="0 0 0 0 1 0 0 0 0 0.478431 0 0 0 0 0.478431 0 0 0 1 0 " />
			<feBlend result="effect_innerShadow_1" in2="shape" mode="normal" />
			<feColorMatrix result="hardAlpha" in="SourceAlpha" type="matrix" values="0 0 0 0 0 0 0 0 0 0 0 0 0 0 0 0 0 0 127 0 " />
			<feOffset dx="0.000000" dy="0.781250" in="hardAlpha" />
			<feGaussianBlur stdDeviation="0.130208299" />
			<feComposite k2="-1" k3="1" in2="hardAlpha" operator="arithmetic" />
			<feColorMatrix type="matrix" values="0 0 0 0 1 0 0 0 0 0.588235 0 0 0 0 0.588235 0 0 0 1 0 " />
			<feBlend result="effect_innerShadow_2" in2="effect_innerShadow_1" mode="normal" />
			<feColorMatrix result="hardAlpha" in="SourceAlpha" type="matrix" values="0 0 0 0 0 0 0 0 0 0 0 0 0 0 0 0 0 0 127 0 " />
			<feOffset dx="0.781250" dy="0.000000" in="hardAlpha" />
			<feGaussianBlur stdDeviation="0.130208299" />
			<feComposite k2="-1" k3="1" in2="hardAlpha" operator="arithmetic" />
			<feColorMatrix type="matrix" values="0 0 0 0 1 0 0 0 0 0.588235 0 0 0 0 0.588235 0 0 0 1 0 " />
			<feBlend result="effect_innerShadow_3" in2="effect_innerShadow_2" mode="normal" />
			<feColorMatrix result="hardAlpha" in="SourceAlpha" type="matrix" values="0 0 0 0 0 0 0 0 0 0 0 0 0 0 0 0 0 0 127 0 " />
			<feOffset dx="-0.781250" dy="0.000000" in="hardAlpha" />
			<feGaussianBlur stdDeviation="0.130208299" />
			<feComposite k2="-1" k3="1" in2="hardAlpha" operator="arithmetic" />
			<feColorMatrix type="matrix" values="0 0 0 0 1 0 0 0 0 0.588235 0 0 0 0 0.588235 0 0 0 1 0 " />
			<feBlend result="effect_innerShadow_4" in2="effect_innerShadow_3" mode="normal" />
		</filter>
		<linearGradient id="paint_linear_6" x1="42.9387131" x2="77.4404907" y1="-32.2265625" y2="23.8412628" gradientUnits="userSpaceOnUse">
			<stop stop-color="rgb(255,255,255)" offset="0" stop-opacity="1" />
			<stop stop-color="rgb(255,237,237)" offset="1" stop-opacity="0" />
		</linearGradient>
		<g id="pixso_custom_effect_5">
			<effect x="0.000000" y="1.367187" visibility="visible" fill="rgb(255,255,255)" fill-opacity="0.699999988" effectType="innerShadow" stdDeviation="1.36718738" radius="0" />
			<effect x="0.000000" y="-1.367187" visibility="visible" fill="rgb(255,255,255)" fill-opacity="0.400000006" effectType="innerShadow" stdDeviation="1.36718738" radius="0" />
		</g>
		<filter id="filter_5" width="100.000000" height="100.000000" x="0.000000" y="0.000000" filterUnits="userSpaceOnUse" customEffect="url(#pixso_custom_effect_5)" color-interpolation-filters="sRGB">
			<feFlood flood-opacity="0" result="BackgroundImageFix" />
			<feBlend result="shape" in="SourceGraphic" in2="BackgroundImageFix" mode="normal" />
			<feColorMatrix result="hardAlpha" in="SourceAlpha" type="matrix" values="0 0 0 0 0 0 0 0 0 0 0 0 0 0 0 0 0 0 100 0 " />
			<feOffset dx="0.000000" dy="1.367187" in="hardAlpha" />
			<feGaussianBlur stdDeviation="0.455729127" />
			<feComposite k2="-1" k3="1" in2="hardAlpha" operator="arithmetic" />
			<feColorMatrix type="matrix" values="0 0 0 0 1 0 0 0 0 1 0 0 0 0 1 0 0 0 0.7 0 " />
			<feBlend result="effect_innerShadow_1" in2="shape" mode="normal" />
			<feColorMatrix result="hardAlpha" in="SourceAlpha" type="matrix" values="0 0 0 0 0 0 0 0 0 0 0 0 0 0 0 0 0 0 100 0 " />
			<feOffset dx="0.000000" dy="-1.367187" in="hardAlpha" />
			<feGaussianBlur stdDeviation="0.455729127" />
			<feComposite k2="-1" k3="1" in2="hardAlpha" operator="arithmetic" />
			<feColorMatrix type="matrix" values="0 0 0 0 1 0 0 0 0 1 0 0 0 0 1 0 0 0 0.4 0 " />
			<feBlend result="effect_innerShadow_2" in2="effect_innerShadow_1" mode="normal" />
		</filter>
	</defs>
	<rect id="应用市场" width="100.000000" height="100.000000" x="0.000000" y="0.000000" />
	<g id="应用市场" clip-path="url(#clipPath_0)" customFrame="url(#clipPath_0)">
		<rect id="应用市场" width="100.000000" height="100.000000" x="0.000000" y="0.000000" rx="25.781250" fill="url(#paint_radial_0)" fill-opacity="0" />
		<rect id="应用市场" width="100.000000" height="100.000000" x="0.000000" y="0.000000" rx="25.781250" fill="url(#paint_linear_0)" fill-opacity="0" />
		<rect id="应用市场" width="100.000000" height="100.000000" x="0.000000" y="0.000000" rx="25.781250" fill="url(#paint_radial_1)" />
		<g id="custom_gradient_0" opacity="0" angularGradient="url(#paint_custom_gradient_0); 49.902344 99.902344 49.902344 49.902344 99.902344 49.902344" mask="url(#outline_mask_0)">
			<g>
				<foreignObject width="100.000000" height="100.000000" x="-0.000002" y="-0.000004">
					<div xmlns="http://www.w3.org/1999/xhtml" style="background:conic-gradient(from 127.751129deg, rgba(47,26,103,1) 0%, rgba(133,96,255,1) 14.7182%, rgba(78,75,170,1) 28.7555%, rgba(46,45,60,1) 40.149%, rgba(210,196,246,1) 52.6067%, rgba(72,44,140,1) 64.5414%, rgba(145,129,174,1) 77.1853%, rgba(51,19,111,1) 89.5136%, rgba(47,26,103,1) 100%);width:100%;height:100%;" />
				</foreignObject>
			</g>
		</g>
		<g id="编组 2">
			<rect id="矩形" width="100.000000" height="99.999969" x="0.000000" y="0.000000" rx="25.781250" fill="rgb(216,216,216)" fill-opacity="0" />
			<rect id="矩形" width="99.804688" height="99.804657" x="0.097656" y="0.097656" rx="25.683594" stroke="rgb(151,151,151)" stroke-opacity="0" stroke-width="0.195312" />
			<g id="编组" opacity="0.899999976">
				<g id="Gallery">
					<path id="合并" d="M45.9048 83.1364L43.1137 83.1364L43.1137 69.0643L45.9048 69.0643L45.9048 83.1364ZM51.1935 83.1364L48.4024 83.1364L48.4024 69.0643L51.1935 69.0643L51.1935 83.1364ZM24.9767 75.5365L24.9767 78.0329L27.4535 78.0329L27.4535 80.0115C27.4317 80.0328 27.4094 80.0536 27.3868 80.074L27.3866 80.0741L27.3865 80.0743C26.8971 80.5132 26.2109 80.7327 25.3279 80.7327C24.5141 80.7327 23.8117 80.5513 23.2206 80.1884C22.9436 80.0183 22.691 79.8083 22.4628 79.5585C22.4101 79.5007 22.3593 79.4414 22.3104 79.3805L22.3101 79.3801C21.6972 78.6159 21.3908 77.6059 21.3908 76.3502C21.3908 75.4626 21.551 74.6921 21.8713 74.0387C22.1397 73.4915 22.4902 73.0501 22.9228 72.7148L22.9229 72.7147C23.0068 72.6497 23.0937 72.5887 23.1837 72.5317C23.3725 72.4121 23.5691 72.3128 23.7735 72.2339L23.7736 72.2339C24.1698 72.0811 24.5954 72.0047 25.0506 72.0047C25.6381 72.0047 26.156 72.1296 26.6043 72.3795C26.6637 72.4126 26.7219 72.4479 26.7789 72.4854C27.2656 72.806 27.6384 73.2559 27.8972 73.8353L30.3186 72.43C30.2526 72.2447 30.1737 72.0664 30.0819 71.895C29.7278 71.2337 29.1813 70.6754 28.4424 70.2202C27.5121 69.647 26.3999 69.3604 25.1061 69.3604C24.1597 69.3604 23.278 69.5228 22.4609 69.8478C22.1927 69.9544 21.9315 70.0786 21.6773 70.2202C21.2667 70.4489 20.8909 70.7165 20.55 71.0227L20.55 71.0228C20.0365 71.484 19.6021 72.0332 19.2466 72.6703C18.6551 73.7305 18.3594 74.9571 18.3594 76.3502C18.3594 77.7134 18.6437 78.9237 19.2124 79.981C19.2146 79.985 19.2167 79.989 19.2189 79.993C19.5345 80.577 19.9193 81.0899 20.3732 81.5317L20.3733 81.5318C20.7435 81.8921 21.1597 82.2051 21.6218 82.4709C21.7139 82.5239 21.8072 82.5745 21.9017 82.6227C22.8632 83.1132 23.9498 83.3585 25.1615 83.3585C26.2829 83.3585 27.3149 83.1551 28.2576 82.7483C29.2003 82.3415 29.8811 81.7867 30.3001 81.084L30.3001 75.5365L24.9767 75.5365ZM36.5314 73.3185C37.6759 73.3185 38.6017 73.5966 39.3087 74.1527L39.3088 74.1527L39.3089 74.1528C39.424 74.2433 39.5332 74.3412 39.6367 74.4465C39.6946 74.5053 39.7502 74.5662 39.8036 74.6289L39.8038 74.6292C40.4318 75.3676 40.7457 76.3731 40.7457 77.6455L40.7457 83.1375L38.4168 83.1375C38.4044 83.0512 38.389 82.8941 38.3705 82.666C38.3521 82.4379 38.3243 82.2376 38.2874 82.065C37.9916 82.5088 37.6281 82.8355 37.1968 83.0451C36.7655 83.2546 36.2295 83.3594 35.5887 83.3594C34.6714 83.3594 33.8872 83.1513 33.236 82.735L33.236 82.735C33.1524 82.6815 33.0709 82.6246 32.9917 82.5643C32.692 82.3361 32.4568 82.0714 32.2861 81.7702L32.2861 81.7701C32.0603 81.3715 31.9473 80.9089 31.9473 80.3823C31.9473 80.0143 32.0096 79.6706 32.1341 79.3511L32.1342 79.3509L32.1343 79.3508C32.2225 79.1246 32.3419 78.9106 32.4926 78.7088C32.5444 78.6394 32.5988 78.5723 32.6559 78.5076L32.656 78.5075L32.6562 78.5072C32.9995 78.1177 33.4379 77.812 33.9713 77.59C33.9842 77.5847 33.9972 77.5794 34.0101 77.5741C34.0119 77.5734 34.0137 77.5727 34.0154 77.5719C34.6255 77.3251 35.2854 77.2017 35.9953 77.2017C36.1083 77.2017 36.221 77.2048 36.3336 77.211L36.3386 77.2112C36.9 77.2424 37.4572 77.3502 38.0101 77.5346C37.981 76.763 37.7693 76.2193 37.3751 75.9033C37.1016 75.6841 36.7403 75.5745 36.2911 75.5745C35.8728 75.5745 35.5066 75.6649 35.1924 75.8457C34.8401 76.0484 34.5532 76.3648 34.3318 76.7949L32.354 75.6484C32.4664 75.4155 32.5994 75.1982 32.753 74.9967L32.7531 74.9966C33.0709 74.5796 33.477 74.2298 33.9713 73.9472C34.7045 73.5281 35.5579 73.3185 36.5314 73.3185ZM58.0161 73.3185C58.8441 73.3185 59.5784 73.4917 60.219 73.8381L60.2233 73.8404C60.2486 73.8542 60.2738 73.8682 60.2989 73.8825C60.5611 74.0321 60.8005 74.2065 61.0169 74.4059L61.0173 74.4062L61.0176 74.4065C61.3449 74.7081 61.6198 75.0666 61.8423 75.482C62.212 76.1724 62.3968 76.9737 62.3968 77.8859C62.3968 78.2804 62.3598 78.6934 62.2859 79.1248L56.0568 79.1248C56.18 79.7412 56.4264 80.2159 56.7961 80.5487C56.9197 80.66 57.0529 80.7526 57.1958 80.8267L57.196 80.8268L57.1962 80.8269C57.4806 80.9743 57.8032 81.048 58.1639 81.048C58.4725 81.048 58.758 80.993 59.0204 80.883L59.0241 80.8814C59.1063 80.8468 59.1861 80.8068 59.2637 80.7614C59.3812 80.6926 59.4887 80.6131 59.5863 80.5228C59.7599 80.3621 59.9019 80.1673 60.0123 79.9385L62.0456 81.1404C61.9596 81.3779 61.8472 81.5971 61.7081 81.7979L61.7078 81.7984C61.4284 82.2018 61.0419 82.5311 60.5484 82.7862C60.5139 82.804 60.4792 82.8214 60.4443 82.8384C60.4402 82.8404 60.4362 82.8424 60.4322 82.8443L60.4318 82.8445C59.7218 83.1878 58.9289 83.3594 58.053 83.3594C57.5081 83.3594 56.9866 83.2832 56.4883 83.1307L56.4874 83.1304C56.1973 83.0415 55.9151 82.9268 55.6409 82.7862C55.4019 82.6637 55.1778 82.5219 54.9685 82.3607L54.9684 82.3606C54.525 82.019 54.1484 81.5908 53.8387 81.0757C53.3827 80.3176 53.1548 79.3961 53.1548 78.3112C53.1548 77.251 53.3796 76.3449 53.8294 75.5929C54.1204 75.1064 54.4733 74.6973 54.8881 74.3656L54.8882 74.3655L54.8894 74.3645C55.1154 74.184 55.3597 74.0264 55.6224 73.8917C55.945 73.7264 56.2774 73.5968 56.6196 73.503L56.6197 73.5029L56.6198 73.5029C57.0684 73.38 57.5338 73.3185 58.0161 73.3185ZM66.8719 75.0752C67.1553 74.4958 67.5281 74.0581 67.9902 73.7623C68.1129 73.6837 68.2403 73.6155 68.3722 73.5578L68.3728 73.5575L68.373 73.5574C68.7373 73.3981 69.1365 73.3185 69.5705 73.3185C69.9399 73.3185 70.2723 73.3923 70.5679 73.54L70.5681 73.5401L70.5687 73.5404L70.5687 76.0737C70.4019 75.9563 70.2257 75.8683 70.0403 75.8097L70.0401 75.8097C69.8558 75.7515 69.6623 75.7224 69.4596 75.7224C68.9146 75.7224 68.4592 75.8505 68.0936 76.1067C67.9303 76.2212 67.7849 76.3612 67.6574 76.5268C67.2446 77.063 67.0382 77.8181 67.0382 78.792L67.0382 83.1375L64.2471 83.1375L64.2471 73.5589L66.7055 73.5589C66.7671 74.2862 66.8226 74.7916 66.8719 75.0752ZM81.6406 73.5565L78.7202 73.5565L76.5205 79.9176L74.0991 73.5565L70.9938 73.5565L75.1897 83.3201C74.8816 83.9858 74.5828 84.4388 74.2932 84.6792C74.0036 84.9196 73.6555 85.0398 73.2489 85.0398C73.0394 85.0398 72.8422 85.0121 72.6574 84.9566C72.4725 84.9011 72.2815 84.7994 72.0844 84.6515L71.0493 86.8335C71.2439 86.971 71.4481 87.0871 71.6616 87.182C72.1376 87.3935 72.6605 87.4992 73.2304 87.4992C74.2285 87.4992 75.0726 87.2033 75.7627 86.6116C76.4528 86.0199 77.0566 85.0706 77.5741 83.7639L81.6406 73.5565ZM57.1888 75.7047C57.4115 75.6052 57.6565 75.5554 57.9237 75.5554C58.2012 75.5554 58.451 75.6109 58.6731 75.7219L58.6732 75.7219L58.6737 75.7222C58.8064 75.7886 58.9291 75.8748 59.042 75.9807C59.0456 75.9842 59.0493 75.9876 59.0529 75.9911C59.0559 75.994 59.059 75.9969 59.062 75.9998C59.3519 76.2824 59.527 76.6829 59.5873 77.2012L56.0753 77.2012C56.1981 76.6852 56.4218 76.2825 56.7465 75.993L56.75 75.99C56.8849 75.8702 57.031 75.7752 57.1881 75.705L57.1888 75.7047ZM36.5126 79.1046C36.9562 79.1046 37.4553 79.1786 38.0098 79.3265L38.0098 79.6224C38.0098 79.8909 37.9542 80.1298 37.8429 80.3391L37.8429 80.3392C37.7447 80.5239 37.6032 80.6856 37.4184 80.8243C37.2688 80.9365 37.1105 81.0274 36.9433 81.0971L36.9432 81.0971C36.6694 81.2111 36.3718 81.2681 36.0505 81.2681C35.6562 81.2681 35.3389 81.1788 35.0986 81C34.8583 80.8213 34.7382 80.5716 34.7382 80.2511C34.7382 80.0903 34.7699 79.9451 34.8335 79.8155L34.8335 79.8155C34.9113 79.6569 35.0366 79.5216 35.2095 79.4097C35.5237 79.2063 35.9581 79.1046 36.5126 79.1046Z" fill="rgb(255,255,255)" fill-rule="evenodd" />
					<path id="合并" d="M45.9048 83.1364L43.1137 83.1364L43.1137 69.0643L45.9048 69.0643L45.9048 83.1364ZM51.1935 83.1364L48.4024 83.1364L48.4024 69.0643L51.1935 69.0643L51.1935 83.1364ZM24.9767 75.5365L24.9767 78.0329L27.4535 78.0329L27.4535 80.0115C27.4317 80.0328 27.4094 80.0536 27.3868 80.074L27.3866 80.0741L27.3865 80.0743C26.8971 80.5132 26.2109 80.7327 25.3279 80.7327C24.5141 80.7327 23.8117 80.5513 23.2206 80.1884C22.9436 80.0183 22.691 79.8083 22.4628 79.5585C22.4101 79.5007 22.3593 79.4414 22.3104 79.3805L22.3101 79.3801C21.6972 78.6159 21.3908 77.6059 21.3908 76.3502C21.3908 75.4626 21.551 74.6921 21.8713 74.0387C22.1397 73.4915 22.4902 73.0501 22.9228 72.7148L22.9229 72.7147C23.0068 72.6497 23.0937 72.5887 23.1837 72.5317C23.3725 72.4121 23.5691 72.3128 23.7735 72.2339L23.7736 72.2339C24.1698 72.0811 24.5954 72.0047 25.0506 72.0047C25.6381 72.0047 26.156 72.1296 26.6043 72.3795C26.6637 72.4126 26.7219 72.4479 26.7789 72.4854C27.2656 72.806 27.6384 73.2559 27.8972 73.8353L30.3186 72.43C30.2526 72.2447 30.1737 72.0664 30.0819 71.895C29.7278 71.2337 29.1813 70.6754 28.4424 70.2202C27.5121 69.647 26.3999 69.3604 25.1061 69.3604C24.1597 69.3604 23.278 69.5228 22.4609 69.8478C22.1927 69.9544 21.9315 70.0786 21.6773 70.2202C21.2667 70.4489 20.8909 70.7165 20.55 71.0227L20.55 71.0228C20.0365 71.484 19.6021 72.0332 19.2466 72.6703C18.6551 73.7305 18.3594 74.9571 18.3594 76.3502C18.3594 77.7134 18.6437 78.9237 19.2124 79.981C19.2146 79.985 19.2167 79.989 19.2189 79.993C19.5345 80.577 19.9193 81.0899 20.3732 81.5317L20.3733 81.5318C20.7435 81.8921 21.1597 82.2051 21.6218 82.4709C21.7139 82.5239 21.8072 82.5745 21.9017 82.6227C22.8632 83.1132 23.9498 83.3585 25.1615 83.3585C26.2829 83.3585 27.3149 83.1551 28.2576 82.7483C29.2003 82.3415 29.8811 81.7867 30.3001 81.084L30.3001 75.5365L24.9767 75.5365ZM36.5314 73.3185C37.6759 73.3185 38.6017 73.5966 39.3087 74.1527L39.3088 74.1527L39.3089 74.1528C39.424 74.2433 39.5332 74.3412 39.6367 74.4465C39.6946 74.5053 39.7502 74.5662 39.8036 74.6289L39.8038 74.6292C40.4318 75.3676 40.7457 76.3731 40.7457 77.6455L40.7457 83.1375L38.4168 83.1375C38.4044 83.0512 38.389 82.8941 38.3705 82.666C38.3521 82.4379 38.3243 82.2376 38.2874 82.065C37.9916 82.5088 37.6281 82.8355 37.1968 83.0451C36.7655 83.2546 36.2295 83.3594 35.5887 83.3594C34.6714 83.3594 33.8872 83.1513 33.236 82.735L33.236 82.735C33.1524 82.6815 33.0709 82.6246 32.9917 82.5643C32.692 82.3361 32.4568 82.0714 32.2861 81.7702L32.2861 81.7701C32.0603 81.3715 31.9473 80.9089 31.9473 80.3823C31.9473 80.0143 32.0096 79.6706 32.1341 79.3511L32.1342 79.3509L32.1343 79.3508C32.2225 79.1246 32.3419 78.9106 32.4926 78.7088C32.5444 78.6394 32.5988 78.5723 32.6559 78.5076L32.656 78.5075L32.6562 78.5072C32.9995 78.1177 33.4379 77.812 33.9713 77.59C33.9842 77.5847 33.9972 77.5794 34.0101 77.5741C34.0119 77.5734 34.0137 77.5727 34.0154 77.5719C34.6255 77.3251 35.2854 77.2017 35.9953 77.2017C36.1083 77.2017 36.221 77.2048 36.3336 77.211L36.3386 77.2112C36.9 77.2424 37.4572 77.3502 38.0101 77.5346C37.981 76.763 37.7693 76.2193 37.3751 75.9033C37.1016 75.6841 36.7403 75.5745 36.2911 75.5745C35.8728 75.5745 35.5066 75.6649 35.1924 75.8457C34.8401 76.0484 34.5532 76.3648 34.3318 76.7949L32.354 75.6484C32.4664 75.4155 32.5994 75.1982 32.753 74.9967L32.7531 74.9966C33.0709 74.5796 33.477 74.2298 33.9713 73.9472C34.7045 73.5281 35.5579 73.3185 36.5314 73.3185ZM58.0161 73.3185C58.8441 73.3185 59.5784 73.4917 60.219 73.8381L60.2233 73.8404C60.2486 73.8542 60.2738 73.8682 60.2989 73.8825C60.5611 74.0321 60.8005 74.2065 61.0169 74.4059L61.0173 74.4062L61.0176 74.4065C61.3449 74.7081 61.6198 75.0666 61.8423 75.482C62.212 76.1724 62.3968 76.9737 62.3968 77.8859C62.3968 78.2804 62.3598 78.6934 62.2859 79.1248L56.0568 79.1248C56.18 79.7412 56.4264 80.2159 56.7961 80.5487C56.9197 80.66 57.0529 80.7526 57.1958 80.8267L57.196 80.8268L57.1962 80.8269C57.4806 80.9743 57.8032 81.048 58.1639 81.048C58.4725 81.048 58.758 80.993 59.0204 80.883L59.0241 80.8814C59.1063 80.8468 59.1861 80.8068 59.2637 80.7614C59.3812 80.6926 59.4887 80.6131 59.5863 80.5228C59.7599 80.3621 59.9019 80.1673 60.0123 79.9385L62.0456 81.1404C61.9596 81.3779 61.8472 81.5971 61.7081 81.7979L61.7078 81.7984C61.4284 82.2018 61.0419 82.5311 60.5484 82.7862C60.5139 82.804 60.4792 82.8214 60.4443 82.8384C60.4402 82.8404 60.4362 82.8424 60.4322 82.8443L60.4318 82.8445C59.7218 83.1878 58.9289 83.3594 58.053 83.3594C57.5081 83.3594 56.9866 83.2832 56.4883 83.1307L56.4874 83.1304C56.1973 83.0415 55.9151 82.9268 55.6409 82.7862C55.4019 82.6637 55.1778 82.5219 54.9685 82.3607L54.9684 82.3606C54.525 82.019 54.1484 81.5908 53.8387 81.0757C53.3827 80.3176 53.1548 79.3961 53.1548 78.3112C53.1548 77.251 53.3796 76.3449 53.8294 75.5929C54.1204 75.1064 54.4733 74.6973 54.8881 74.3656L54.8882 74.3655L54.8894 74.3645C55.1154 74.184 55.3597 74.0264 55.6224 73.8917C55.945 73.7264 56.2774 73.5968 56.6196 73.503L56.6197 73.5029L56.6198 73.5029C57.0684 73.38 57.5338 73.3185 58.0161 73.3185ZM66.8719 75.0752C67.1553 74.4958 67.5281 74.0581 67.9902 73.7623C68.1129 73.6837 68.2403 73.6155 68.3722 73.5578L68.3728 73.5575L68.373 73.5574C68.7373 73.3981 69.1365 73.3185 69.5705 73.3185C69.9399 73.3185 70.2723 73.3923 70.5679 73.54L70.5681 73.5401L70.5687 73.5404L70.5687 76.0737C70.4019 75.9563 70.2257 75.8683 70.0403 75.8097L70.0401 75.8097C69.8558 75.7515 69.6623 75.7224 69.4596 75.7224C68.9146 75.7224 68.4592 75.8505 68.0936 76.1067C67.9303 76.2212 67.7849 76.3612 67.6574 76.5268C67.2446 77.063 67.0382 77.8181 67.0382 78.792L67.0382 83.1375L64.2471 83.1375L64.2471 73.5589L66.7055 73.5589C66.7671 74.2862 66.8226 74.7916 66.8719 75.0752ZM81.6406 73.5565L78.7202 73.5565L76.5205 79.9176L74.0991 73.5565L70.9938 73.5565L75.1897 83.3201C74.8816 83.9858 74.5828 84.4388 74.2932 84.6792C74.0036 84.9196 73.6555 85.0398 73.2489 85.0398C73.0394 85.0398 72.8422 85.0121 72.6574 84.9566C72.4725 84.9011 72.2815 84.7994 72.0844 84.6515L71.0493 86.8335C71.2439 86.971 71.4481 87.0871 71.6616 87.182C72.1376 87.3935 72.6605 87.4992 73.2304 87.4992C74.2285 87.4992 75.0726 87.2033 75.7627 86.6116C76.4528 86.0199 77.0566 85.0706 77.5741 83.7639L81.6406 73.5565ZM57.1888 75.7047C57.4115 75.6052 57.6565 75.5554 57.9237 75.5554C58.2012 75.5554 58.451 75.6109 58.6731 75.7219L58.6732 75.7219L58.6737 75.7222C58.8064 75.7886 58.9291 75.8748 59.042 75.9807C59.0456 75.9842 59.0493 75.9876 59.0529 75.9911C59.0559 75.994 59.059 75.9969 59.062 75.9998C59.3519 76.2824 59.527 76.6829 59.5873 77.2012L56.0753 77.2012C56.1981 76.6852 56.4218 76.2825 56.7465 75.993L56.75 75.99C56.8849 75.8702 57.031 75.7752 57.1881 75.705L57.1888 75.7047ZM36.5126 79.1046C36.9562 79.1046 37.4553 79.1786 38.0098 79.3265L38.0098 79.6224C38.0098 79.8909 37.9542 80.1298 37.8429 80.3391L37.8429 80.3392C37.7447 80.5239 37.6032 80.6856 37.4184 80.8243C37.2688 80.9365 37.1105 81.0274 36.9433 81.0971L36.9432 81.0971C36.6694 81.2111 36.3718 81.2681 36.0505 81.2681C35.6562 81.2681 35.3389 81.1788 35.0986 81C34.8583 80.8213 34.7382 80.5716 34.7382 80.2511C34.7382 80.0903 34.7699 79.9451 34.8335 79.8155L34.8335 79.8155C34.9113 79.6569 35.0366 79.5216 35.2095 79.4097C35.5237 79.2063 35.9581 79.1046 36.5126 79.1046Z" fill="#000000" style="mix-blend-mode:plus-lighter" fill-opacity="0" fill-rule="evenodd" />
					<path id="合并" d="M45.7095 83.1364L43.1137 83.1364L43.1137 69.0643L45.9048 69.0643L45.9048 83.1364L45.7095 83.1364ZM45.7095 82.9411L43.309 82.9411L43.309 69.2596L45.7095 69.2596L45.7095 82.9411ZM50.9982 83.1364L48.4024 83.1364L48.4024 69.0643L51.1935 69.0643L51.1935 83.1364L50.9982 83.1364ZM50.9982 82.9411L48.5977 82.9411L48.5977 69.2596L50.9982 69.2596L50.9982 82.9411ZM27.4535 80.0115Q27.4208 80.0434 27.3868 80.0739L27.3868 80.074L27.3866 80.0741L27.3865 80.0743Q26.6525 80.7327 25.3279 80.7327Q24.1072 80.7327 23.2206 80.1884C22.9436 80.0183 22.691 79.8083 22.4628 79.5585C22.4101 79.5007 22.3593 79.4414 22.3104 79.3805L22.3101 79.3801Q21.3908 78.2338 21.3908 76.3502Q21.3908 75.0188 21.8713 74.0387Q22.2739 73.2178 22.9228 72.7148L22.9229 72.7147C23.0068 72.6497 23.0937 72.5887 23.1837 72.5317C23.3725 72.4121 23.5691 72.3128 23.7735 72.2339L23.7736 72.2339Q24.3679 72.0047 25.0506 72.0047Q25.9319 72.0047 26.6043 72.3795Q26.6934 72.4292 26.7789 72.4854C27.2149 72.7726 27.5595 73.1636 27.8126 73.6586C27.842 73.7161 27.8702 73.775 27.8972 73.8353L28.067 73.7368L30.3186 72.43Q30.2196 72.1521 30.0819 71.895L30.0819 71.8949Q29.5507 70.903 28.4424 70.2202Q27.0469 69.3604 25.1061 69.3604Q23.6865 69.3604 22.4609 69.8478Q22.0586 70.0078 21.6773 70.2202Q21.0614 70.5633 20.55 71.0227L20.55 71.0228Q19.7798 71.7147 19.2466 72.6703Q18.3594 74.2606 18.3594 76.3502Q18.3594 78.395 19.2124 79.981C19.2146 79.985 19.2167 79.989 19.2189 79.993Q19.6923 80.869 20.3732 81.5317L20.3732 81.5317L20.3733 81.5318C20.7435 81.8921 21.1597 82.2051 21.6218 82.4709C21.7139 82.5239 21.8072 82.5745 21.9017 82.6227L21.9018 82.6227Q23.344 83.3585 25.1615 83.3585Q26.8436 83.3585 28.2576 82.7483Q29.6716 82.1381 30.3001 81.084L30.3001 75.5365L24.9767 75.5365L24.9767 78.0329L27.4535 78.0329L27.4535 80.0115ZM25.172 77.8376L27.6489 77.8376L27.6489 80.0938L27.5899 80.1513Q27.5586 80.1819 27.5263 80.2112Q27.5217 80.2153 27.5172 80.2194L27.5169 80.2196L27.5168 80.2197Q27.4985 80.2361 27.4799 80.2522Q26.6947 80.928 25.3279 80.928Q24.0776 80.928 23.1561 80.3776Q23.1372 80.3664 23.1185 80.3549Q23.1073 80.348 23.0962 80.3411Q22.6702 80.0753 22.3186 79.6902Q22.2353 79.5989 22.1581 79.5027L22.1578 79.5023Q22.1428 79.4836 22.1281 79.4648Q21.1954 78.2721 21.1954 76.3502Q21.1955 74.9735 21.696 73.9527Q22.109 73.1105 22.7726 72.5844Q22.7878 72.5723 22.8032 72.5604L22.8034 72.5602Q22.9363 72.4572 23.0792 72.3667Q23.3706 72.182 23.686 72.0584Q23.6946 72.0551 23.7032 72.0517L23.7035 72.0516Q23.7176 72.0462 23.7317 72.0409Q24.3476 71.8093 25.0506 71.8093Q25.9589 71.8093 26.6626 72.1887Q26.6811 72.1987 26.6994 72.2089Q26.7037 72.2113 26.708 72.2137Q26.799 72.2648 26.8863 72.3223Q27.0809 72.4504 27.2525 72.6042Q27.6925 72.9982 27.9818 73.5604L30.0771 72.3443Q30.0027 72.1607 29.9098 71.9872Q29.4034 71.0417 28.34 70.3865Q26.9916 69.5557 25.1061 69.5557Q23.7239 69.5557 22.533 70.0293Q22.1426 70.1845 21.7723 70.3908Q21.1756 70.7233 20.6805 71.168L20.6804 71.1681Q19.9345 71.8382 19.4172 72.7655Q18.5547 74.3114 18.5547 76.3502Q18.5547 78.3458 19.3844 79.8885L19.3864 79.8922L19.3908 79.9003Q19.8499 80.7497 20.5093 81.3916L20.5095 81.3918Q21.0473 81.9152 21.7192 82.3016Q21.8531 82.3786 21.9905 82.4487Q23.3909 83.1632 25.1615 83.1632Q26.8032 83.1632 28.1802 82.5689Q29.5053 81.9971 30.1048 81.0293L30.1048 75.7319L25.172 75.7319L25.172 77.8376ZM38.3347 82.3363C38.3491 82.4388 38.361 82.5488 38.3705 82.666C38.389 82.8941 38.4044 83.0512 38.4168 83.1375L40.7457 83.1375L40.7457 77.6455Q40.7457 75.7369 39.8038 74.6292L39.8036 74.6289C39.7502 74.5662 39.6946 74.5053 39.6367 74.4465C39.5332 74.3412 39.424 74.2433 39.3089 74.1528L39.3088 74.1527L39.3087 74.1527Q38.2481 73.3185 36.5314 73.3185Q35.0711 73.3185 33.9713 73.9472Q33.2299 74.3711 32.7531 74.9966L32.753 74.9967C32.5994 75.1982 32.4664 75.4155 32.354 75.6484L34.1626 76.6968L34.3318 76.7949C34.3622 76.7358 34.3938 76.6789 34.4267 76.6242C34.6332 76.2801 34.8885 76.0206 35.1924 75.8457C35.5066 75.6649 35.8728 75.5745 36.2911 75.5745C36.7403 75.5745 37.1016 75.6841 37.3751 75.9033Q37.9114 76.3331 37.9972 77.3248Q38.006 77.4268 38.0101 77.5346C37.944 77.5125 37.8779 77.4916 37.8117 77.4718C37.324 77.3255 36.833 77.2387 36.3386 77.2112L36.3336 77.211C36.221 77.2048 36.1083 77.2017 35.9953 77.2017Q34.9305 77.2017 34.0154 77.5719L34.0101 77.5741C33.9972 77.5794 33.9842 77.5847 33.9713 77.59C33.4379 77.812 32.9995 78.1177 32.6562 78.5072L32.656 78.5075L32.6559 78.5076C32.5988 78.5723 32.5444 78.6394 32.4926 78.7088C32.3419 78.9106 32.2225 79.1246 32.1343 79.3508L32.1342 79.3509L32.1341 79.3511C32.0096 79.6706 31.9473 80.0143 31.9473 80.3823Q31.9473 81.1722 32.2861 81.7701L32.2861 81.7702C32.4568 82.0714 32.692 82.3361 32.9917 82.5643C33.0709 82.6246 33.1524 82.6815 33.236 82.735L33.236 82.735Q34.2128 83.3594 35.5887 83.3594C36.2295 83.3594 36.7655 83.2546 37.1968 83.0451C37.5541 82.8714 37.865 82.6174 38.1292 82.283C38.1839 82.2138 38.2366 82.1411 38.2874 82.065C38.3053 82.1489 38.3211 82.2393 38.3347 82.3363ZM34.2577 76.5262Q34.5806 75.9869 35.0559 75.6995Q35.0753 75.6877 35.0949 75.6764Q35.1136 75.6657 35.1324 75.6554Q35.636 75.3791 36.2911 75.3791Q37.0027 75.3791 37.4583 75.7206Q37.478 75.7354 37.4973 75.7509Q37.5167 75.7664 37.5355 75.7826Q38.1596 76.3173 38.2053 77.5272L38.2159 77.8091L37.9483 77.7198Q37.1438 77.4516 36.3279 77.4062L36.3229 77.406Q36.1594 77.397 35.9953 77.397Q34.9685 77.397 34.0888 77.753L34.0853 77.7544L34.0842 77.7548L34.0551 77.7667L34.0464 77.7704Q33.2878 78.0859 32.8028 78.6363L32.8026 78.6365L32.8024 78.6367Q32.7221 78.7279 32.6491 78.8256Q32.439 79.1071 32.3162 79.4218L32.3162 79.4219L32.3161 79.4221Q32.1426 79.867 32.1426 80.3823Q32.1426 81.1207 32.4557 81.6732L32.4561 81.6739Q32.6923 82.0909 33.11 82.4089Q33.2225 82.4945 33.3376 82.5682L33.3412 82.5705Q34.2699 83.1641 35.5887 83.1641Q36.5049 83.1641 37.1114 82.8694Q37.1728 82.8396 37.2322 82.8063Q37.753 82.5146 38.1248 81.9567L38.3814 81.5716L38.4783 82.0241Q38.5365 82.2954 38.5652 82.6502Q38.5794 82.8249 38.5909 82.9422L40.5504 82.9422L40.5504 77.6455Q40.5504 75.8087 39.6553 74.756L39.6548 74.7554Q39.5793 74.6667 39.4974 74.5834Q39.3511 74.4345 39.1887 74.3068L39.1884 74.3066L39.188 74.3062Q38.1805 73.5138 36.5314 73.5138Q35.123 73.5138 34.0683 74.1168Q33.3616 74.5207 32.9084 75.115L32.9079 75.1157Q32.7436 75.3313 32.6124 75.5725L34.2577 76.5262ZM56.2561 79.1248L62.2859 79.1248Q62.3968 78.4776 62.3968 77.8859C62.3968 76.9737 62.212 76.1724 61.8423 75.482Q61.5086 74.8589 61.0177 74.4065L61.0176 74.4065L61.0173 74.4062L61.0169 74.4059C60.8005 74.2065 60.5611 74.0321 60.2989 73.8825C60.2738 73.8682 60.2486 73.8542 60.2233 73.8404L60.219 73.8381Q59.258 73.3185 58.0161 73.3185Q57.2927 73.3185 56.6198 73.5029L56.6197 73.5029L56.6196 73.503C56.2774 73.5968 55.945 73.7264 55.6224 73.8917C55.3597 74.0264 55.1154 74.184 54.8894 74.3645L54.8882 74.3655L54.8881 74.3656C54.4733 74.6973 54.1204 75.1064 53.8294 75.5929C53.3796 76.3449 53.1548 77.251 53.1548 78.3112Q53.1548 79.9385 53.8387 81.0757C54.1484 81.5908 54.525 82.019 54.9684 82.3606L54.9685 82.3607C55.1778 82.5219 55.4019 82.6637 55.6409 82.7862C55.9151 82.9268 56.1973 83.0415 56.4874 83.1304L56.4883 83.1307C56.9866 83.2832 57.5081 83.3594 58.053 83.3594Q59.3669 83.3594 60.4318 82.8445L60.4322 82.8443C60.4362 82.8424 60.4402 82.8404 60.4443 82.8384C60.4792 82.8214 60.5139 82.804 60.5484 82.7862C61.0419 82.5311 61.4284 82.2018 61.7078 81.7984L61.7081 81.7979C61.8472 81.5971 61.9596 81.3779 62.0456 81.1404L60.181 80.0382L60.0123 79.9385C59.9836 79.9981 59.9526 80.0555 59.9195 80.1105C59.8257 80.2666 59.7146 80.404 59.5863 80.5228C59.4887 80.6131 59.3812 80.6926 59.2637 80.7614C59.1861 80.8068 59.1063 80.8468 59.0241 80.8814L59.0204 80.883C58.758 80.993 58.4725 81.048 58.1639 81.048C57.8032 81.048 57.4806 80.9743 57.1962 80.8269L57.196 80.8268L57.1958 80.8267C57.0529 80.7526 56.9197 80.66 56.7961 80.5487C56.4665 80.2519 56.2348 79.8424 56.1011 79.3202C56.0849 79.2567 56.0701 79.1916 56.0568 79.1248L56.2561 79.1248ZM60.0877 80.2099Q59.9417 80.4531 59.7441 80.6424Q59.7317 80.6544 59.719 80.6661Q59.7114 80.6731 59.7038 80.6801Q59.5479 80.8214 59.3624 80.9299Q59.2515 80.9948 59.1346 81.0464Q59.1173 81.0541 59.0998 81.0615L59.0959 81.0631Q59.0797 81.0699 59.0634 81.0764Q58.6471 81.2433 58.1639 81.2433Q57.6002 81.2433 57.1459 81.0203Q57.1258 81.0104 57.1059 81.0001L57.1059 81.0001L57.1056 81Q57.0952 80.9945 57.0848 80.989Q56.8603 80.8693 56.6654 80.6938Q56.6614 80.6902 56.6574 80.6866Q56.0615 80.1446 55.8652 79.1631L55.8185 78.9295L62.1195 78.9295Q62.2015 78.3866 62.2015 77.8859Q62.2015 76.5665 61.6701 75.5742Q61.352 74.9802 60.8849 74.5498L60.8848 74.5497L60.8846 74.5495Q60.5762 74.2655 60.2021 74.0521Q60.1664 74.0318 60.1303 74.0122L60.1261 74.0099Q59.2086 73.5138 58.0161 73.5138Q57.3194 73.5138 56.6728 73.6909L56.6719 73.6911L56.6712 73.6913Q56.1774 73.8267 55.7115 74.0655Q55.335 74.2585 55.0115 74.517L55.0101 74.5181L55.01 74.5182Q54.4154 74.9937 53.997 75.6932Q53.3501 76.7749 53.3501 78.3112Q53.3501 79.8843 54.006 80.9751Q54.4517 81.716 55.0871 82.2055L55.0877 82.206Q55.3874 82.4368 55.73 82.6124Q56.126 82.8154 56.5447 82.9437L56.5455 82.9439Q57.2649 83.1641 58.053 83.1641Q59.3221 83.1641 60.3466 82.6687L60.3471 82.6685L60.3507 82.6668L60.3587 82.6628Q60.4089 82.6384 60.4587 82.6127Q61.1558 82.2523 61.5471 81.6874L61.5476 81.6867Q61.6971 81.4707 61.8028 81.2238L60.0877 80.2099ZM67.0264 74.7882C66.9722 74.8796 66.9207 74.9753 66.8719 75.0752C66.8566 74.9873 66.8407 74.878 66.8242 74.7474C66.7876 74.4568 66.748 74.0606 66.7055 73.5589L64.2471 73.5589L64.2471 83.1375L67.0382 83.1375L67.0382 78.792Q67.0382 77.3312 67.6574 76.5268C67.7849 76.3612 67.9303 76.2212 68.0936 76.1067L68.0938 76.1066Q68.6421 75.7224 69.4596 75.7224C69.6623 75.7224 69.8558 75.7515 70.0401 75.8097L70.0403 75.8097C70.1549 75.8459 70.2659 75.8933 70.3734 75.952C70.4398 75.9883 70.5049 76.0289 70.5687 76.0737L70.5687 73.5404L70.5681 73.5401L70.5679 73.54C70.2723 73.3923 69.9399 73.3185 69.5705 73.3185C69.1365 73.3185 68.7373 73.3981 68.373 73.5574L68.3728 73.5575L68.3722 73.5578C68.2403 73.6155 68.1129 73.6837 67.9902 73.7623C67.6077 74.0071 67.2865 74.3491 67.0264 74.7882ZM76.62 79.63L76.5205 79.9176L76.4123 79.6331L74.0991 73.5565L70.9938 73.5565L71.0777 73.7518L75.1897 83.3201C74.8816 83.9858 74.5828 84.4388 74.2932 84.6792C74.0036 84.9196 73.6555 85.0398 73.2489 85.0398C73.0394 85.0398 72.8422 85.0121 72.6574 84.9566Q72.4571 84.8965 72.2472 84.764Q72.1665 84.7131 72.0844 84.6515L71.9991 84.8313L71.0493 86.8335Q71.3413 87.0397 71.6616 87.182C72.1376 87.3935 72.6605 87.4992 73.2304 87.4992C74.2285 87.4992 75.0726 87.2033 75.7627 86.6116C76.4528 86.0199 77.0566 85.0706 77.5741 83.7639L81.5628 73.7518L81.6406 73.5565L78.7202 73.5565L76.62 79.63ZM78.8593 73.7518L76.5294 80.4898L73.9645 73.7518L71.2903 73.7518L75.4035 83.323L75.3669 83.4021Q74.8863 84.4407 74.418 84.8295Q74.2462 84.9721 74.0507 85.0646Q73.6901 85.2351 73.2489 85.2351Q72.906 85.2351 72.6012 85.1437Q72.3852 85.0788 72.1629 84.9416L71.2978 86.7652Q71.5118 86.9017 71.7409 87.0035Q72.417 87.3039 73.2304 87.3039Q74.2289 87.3039 75.0091 86.8911Q75.3422 86.7148 75.6356 86.4633Q76.634 85.6072 77.3925 83.692L81.3526 73.7518L78.8593 73.7518ZM70.3734 73.6655Q70.0119 73.5138 69.5705 73.5138Q68.9604 73.5138 68.4514 73.7363L68.4512 73.7364L68.4505 73.7367Q68.2667 73.8171 68.0955 73.9268Q67.4484 74.3411 67.0473 75.161L66.7826 75.7021L66.6794 75.1086Q66.6103 74.7111 66.5263 73.7542L64.4424 73.7542L64.4424 82.9422L66.8429 82.9422L66.8429 78.792Q66.8429 77.2647 67.5027 76.4076Q67.7033 76.147 67.959 75.9627Q67.9702 75.9547 67.9815 75.9468Q68.0008 75.9332 68.0204 75.9202Q68.6087 75.5271 69.4596 75.5271Q69.7747 75.5271 70.0643 75.6128Q70.0818 75.618 70.0991 75.6235L70.0993 75.6235Q70.1131 75.6279 70.1269 75.6325Q70.2528 75.6742 70.3734 75.7324L70.3734 73.6655ZM57.143 75.5116Q57.126 75.5188 57.1091 75.5263L57.1089 75.5264L57.1084 75.5267Q57.0976 75.5315 57.087 75.5364Q56.8361 75.6525 56.6201 75.844L56.6166 75.8472Q56.5991 75.8628 56.5821 75.8787Q56.0772 76.3495 55.8853 77.156L55.828 77.3965L59.8066 77.3965L59.7813 77.1786Q59.6867 76.3649 59.2344 75.8963Q59.2164 75.8776 59.1977 75.8594L59.1873 75.8494L59.1757 75.8384Q58.9954 75.669 58.784 75.5592Q58.7727 75.5533 58.7612 75.5476L58.7604 75.5472L58.7598 75.5469Q58.7423 75.5381 58.7246 75.5298Q58.3641 75.3601 57.9237 75.3601Q57.5013 75.3601 57.143 75.5116ZM57.9237 75.5554C57.6565 75.5554 57.4115 75.6052 57.1888 75.7047L57.1881 75.705C57.031 75.7752 56.8849 75.8702 56.75 75.99L56.7465 75.993Q56.3228 76.3708 56.1283 77.0059Q56.0992 77.1007 56.0753 77.2012L59.5873 77.2012C59.5795 77.1341 59.5697 77.069 59.5581 77.0059C59.4798 76.5812 59.3144 76.2459 59.062 75.9998Q59.0575 75.9955 59.0529 75.9911Q59.0475 75.9859 59.042 75.9807Q58.8727 75.8218 58.6737 75.7222L58.6732 75.7219L58.6731 75.7219C58.451 75.6109 58.2012 75.5554 57.9237 75.5554ZM38.0602 79.1378Q37.2037 78.9093 36.5126 78.9093Q35.6231 78.9093 35.1034 79.2458Q34.8158 79.4319 34.6751 79.6962Q34.6667 79.712 34.6588 79.7281L34.6581 79.7296Q34.6493 79.7475 34.6412 79.7657Q34.5428 79.9865 34.5428 80.2511Q34.5428 80.5807 34.6852 80.8285Q34.7929 81.016 34.982 81.1567Q35.3944 81.4634 36.0505 81.4634Q36.5437 81.4634 36.9715 81.2962Q36.995 81.287 37.0184 81.2774L37.0196 81.2768Q37.0297 81.2726 37.0397 81.2683Q37.3013 81.1563 37.5356 80.9806Q37.8365 80.7548 38.0026 80.4544Q38.0088 80.4433 38.0147 80.4321L38.0154 80.4308Q38.0252 80.4124 38.0344 80.3939Q38.2052 80.0506 38.2052 79.6224L38.2052 79.1765L38.0602 79.1378ZM38.0098 79.3265C37.4553 79.1786 36.9562 79.1046 36.5126 79.1046Q35.6808 79.1046 35.2095 79.4097Q34.9502 79.5776 34.8335 79.8155L34.8335 79.8155C34.7699 79.9451 34.7382 80.0903 34.7382 80.2511C34.7382 80.5716 34.8583 80.8213 35.0986 81C35.3389 81.1788 35.6562 81.2681 36.0505 81.2681Q36.5325 81.2681 36.9432 81.0971L36.9433 81.0971C37.1105 81.0274 37.2688 80.9365 37.4184 80.8243C37.6032 80.6856 37.7447 80.5239 37.8429 80.3392L37.8429 80.3391C37.9542 80.1298 38.0098 79.8909 38.0098 79.6224L38.0098 79.3265Z" fill="url(#paint_linear_1)" style="mix-blend-mode:plus-lighter" fill-opacity="0" fill-rule="evenodd" />
					<path id="合并" d="M39.7189 48.4375L45.2087 61.9734L42.1219 61.9734L41.0128 59.0517L35.8188 59.0517L34.7467 61.9734L31.8447 61.9734L37.1681 48.4375L39.7189 48.4375ZM38.3703 52.0996L40.0894 56.5931L36.7253 56.5931L38.3703 52.0996ZM52.3278 52.1545C52.8124 52.1545 53.2713 52.229 53.7047 52.3779L53.705 52.378C53.9769 52.4715 54.2387 52.5942 54.4905 52.7463C55.1436 53.1408 55.6642 53.7171 56.0524 54.4752C56.4405 55.2334 56.6346 56.1364 56.6346 57.1843C56.6346 58.2198 56.4405 59.1166 56.0524 59.8748C55.6642 60.6329 55.1436 61.2093 54.4905 61.6037C54.2387 61.7558 53.9768 61.8786 53.7048 61.9721L53.7047 61.9721C53.2713 62.121 52.8124 62.1955 52.3278 62.1955C51.7429 62.1955 51.2062 62.087 50.7177 61.87L50.7175 61.8699C50.7121 61.8675 50.7066 61.8651 50.7012 61.8626C50.563 61.8004 50.431 61.7284 50.3053 61.6468C49.983 61.4374 49.7022 61.1641 49.4628 60.8271L49.4628 66.0787L46.6717 66.0787L46.6717 52.3949L49.1301 52.3949L49.1855 52.9867C49.1978 53.1099 49.2102 53.2425 49.2225 53.3842C49.2348 53.526 49.2533 53.6647 49.2779 53.8003C49.5337 53.3739 49.8477 53.0312 50.22 52.7723L50.2201 52.7722C50.3321 52.6943 50.4493 52.6241 50.5718 52.5614C50.663 52.5147 50.7559 52.472 50.8504 52.4334L50.8505 52.4333L50.8506 52.4333L50.8506 52.4333C51.305 52.2474 51.7974 52.1545 52.3278 52.1545ZM65.6478 52.3779C65.2144 52.229 64.7554 52.1545 64.2709 52.1545C63.7405 52.1545 63.2481 52.2474 62.7937 52.4332L62.7937 52.4333L62.7935 52.4333L62.7934 52.4334C62.699 52.472 62.6061 52.5147 62.5149 52.5614C62.3924 52.6241 62.2752 52.6943 62.1632 52.7722L62.163 52.7723C61.7908 53.0312 61.4768 53.3739 61.221 53.8003C61.1964 53.6647 61.1779 53.526 61.1656 53.3842C61.1532 53.2425 61.1409 53.1099 61.1286 52.9867L61.0731 52.3949L58.6147 52.3949L58.6147 66.0787L61.4058 66.0787L61.4058 60.8271C61.6452 61.1641 61.9261 61.4374 62.2484 61.6468C62.374 61.7284 62.506 61.8004 62.6443 61.8626C62.6497 61.8651 62.6551 61.8675 62.6605 61.8699C63.1491 62.087 63.6859 62.1955 64.2709 62.1955C64.7554 62.1955 65.2144 62.121 65.6478 61.9721L65.6479 61.9721C65.9198 61.8786 66.1817 61.7558 66.4335 61.6037C67.0866 61.2093 67.6072 60.6329 67.9954 59.8748C68.3836 59.1166 68.5777 58.2198 68.5777 57.1843C68.5777 56.1364 68.3836 55.2334 67.9954 54.4752C67.6072 53.7171 67.0866 53.1408 66.4335 52.7463C66.1818 52.5942 65.92 52.4715 65.6481 52.378L65.6478 52.3779ZM52.589 59.5415C52.3105 59.6844 51.9954 59.7558 51.6436 59.7558C51.3031 59.7558 50.9926 59.6908 50.7122 59.5609C50.4854 59.4557 50.2784 59.3081 50.091 59.1179C49.672 58.6926 49.4625 58.0484 49.4625 57.1855C49.4625 56.3102 49.6751 55.6476 50.1002 55.1976C50.3297 54.9548 50.5851 54.7775 50.8666 54.6657L50.8668 54.6656C51.1068 54.5703 51.3658 54.5227 51.6436 54.5227C51.9604 54.5227 52.2474 54.5846 52.5047 54.7083C52.7579 54.83 52.9822 55.0116 53.1778 55.2531C53.1816 55.2578 53.1853 55.2624 53.189 55.2671C53.5759 55.7523 53.7693 56.3918 53.7693 57.1855C53.7693 57.9868 53.5722 58.6155 53.1778 59.0716C53.0042 59.2724 52.8079 59.4291 52.589 59.5415ZM63.5867 59.7558C63.9385 59.7558 64.2536 59.6844 64.532 59.5415C64.751 59.4291 64.9473 59.2724 65.1209 59.0716C65.5152 58.6155 65.7124 57.9868 65.7124 57.1855C65.7124 56.3918 65.5189 55.7523 65.1321 55.2671C65.1284 55.2624 65.1246 55.2578 65.1209 55.2531C64.9253 55.0116 64.7009 54.83 64.4478 54.7083C64.1905 54.5846 63.9035 54.5227 63.5867 54.5227C63.3088 54.5227 63.0498 54.5704 62.8097 54.6657C62.5282 54.7775 62.2727 54.9548 62.0433 55.1976C61.6181 55.6476 61.4056 56.3102 61.4056 57.1855C61.4056 58.0484 61.6151 58.6926 62.034 59.1179C62.2214 59.3081 62.4285 59.4557 62.6553 59.5609C62.9356 59.6908 63.2461 59.7558 63.5867 59.7558Z" fill="rgb(255,255,255)" fill-rule="evenodd" />
					<path id="合并" d="M39.7189 48.4375L45.2087 61.9734L42.1219 61.9734L41.0128 59.0517L35.8188 59.0517L34.7467 61.9734L31.8447 61.9734L37.1681 48.4375L39.7189 48.4375ZM38.3703 52.0996L40.0894 56.5931L36.7253 56.5931L38.3703 52.0996ZM52.3278 52.1545C52.8124 52.1545 53.2713 52.229 53.7047 52.3779L53.705 52.378C53.9769 52.4715 54.2387 52.5942 54.4905 52.7463C55.1436 53.1408 55.6642 53.7171 56.0524 54.4752C56.4405 55.2334 56.6346 56.1364 56.6346 57.1843C56.6346 58.2198 56.4405 59.1166 56.0524 59.8748C55.6642 60.6329 55.1436 61.2093 54.4905 61.6037C54.2387 61.7558 53.9768 61.8786 53.7048 61.9721L53.7047 61.9721C53.2713 62.121 52.8124 62.1955 52.3278 62.1955C51.7429 62.1955 51.2062 62.087 50.7177 61.87L50.7175 61.8699C50.7121 61.8675 50.7066 61.8651 50.7012 61.8626C50.563 61.8004 50.431 61.7284 50.3053 61.6468C49.983 61.4374 49.7022 61.1641 49.4628 60.8271L49.4628 66.0787L46.6717 66.0787L46.6717 52.3949L49.1301 52.3949L49.1855 52.9867C49.1978 53.1099 49.2102 53.2425 49.2225 53.3842C49.2348 53.526 49.2533 53.6647 49.2779 53.8003C49.5337 53.3739 49.8477 53.0312 50.22 52.7723L50.2201 52.7722C50.3321 52.6943 50.4493 52.6241 50.5718 52.5614C50.663 52.5147 50.7559 52.472 50.8504 52.4334L50.8505 52.4333L50.8506 52.4333L50.8506 52.4333C51.305 52.2474 51.7974 52.1545 52.3278 52.1545ZM65.6478 52.3779C65.2144 52.229 64.7554 52.1545 64.2709 52.1545C63.7405 52.1545 63.2481 52.2474 62.7937 52.4332L62.7937 52.4333L62.7935 52.4333L62.7934 52.4334C62.699 52.472 62.6061 52.5147 62.5149 52.5614C62.3924 52.6241 62.2752 52.6943 62.1632 52.7722L62.163 52.7723C61.7908 53.0312 61.4768 53.3739 61.221 53.8003C61.1964 53.6647 61.1779 53.526 61.1656 53.3842C61.1532 53.2425 61.1409 53.1099 61.1286 52.9867L61.0731 52.3949L58.6147 52.3949L58.6147 66.0787L61.4058 66.0787L61.4058 60.8271C61.6452 61.1641 61.9261 61.4374 62.2484 61.6468C62.374 61.7284 62.506 61.8004 62.6443 61.8626C62.6497 61.8651 62.6551 61.8675 62.6605 61.8699C63.1491 62.087 63.6859 62.1955 64.2709 62.1955C64.7554 62.1955 65.2144 62.121 65.6478 61.9721L65.6479 61.9721C65.9198 61.8786 66.1817 61.7558 66.4335 61.6037C67.0866 61.2093 67.6072 60.6329 67.9954 59.8748C68.3836 59.1166 68.5777 58.2198 68.5777 57.1843C68.5777 56.1364 68.3836 55.2334 67.9954 54.4752C67.6072 53.7171 67.0866 53.1408 66.4335 52.7463C66.1818 52.5942 65.92 52.4715 65.6481 52.378L65.6478 52.3779ZM52.589 59.5415C52.3105 59.6844 51.9954 59.7558 51.6436 59.7558C51.3031 59.7558 50.9926 59.6908 50.7122 59.5609C50.4854 59.4557 50.2784 59.3081 50.091 59.1179C49.672 58.6926 49.4625 58.0484 49.4625 57.1855C49.4625 56.3102 49.6751 55.6476 50.1002 55.1976C50.3297 54.9548 50.5851 54.7775 50.8666 54.6657L50.8668 54.6656C51.1068 54.5703 51.3658 54.5227 51.6436 54.5227C51.9604 54.5227 52.2474 54.5846 52.5047 54.7083C52.7579 54.83 52.9822 55.0116 53.1778 55.2531C53.1816 55.2578 53.1853 55.2624 53.189 55.2671C53.5759 55.7523 53.7693 56.3918 53.7693 57.1855C53.7693 57.9868 53.5722 58.6155 53.1778 59.0716C53.0042 59.2724 52.8079 59.4291 52.589 59.5415ZM63.5867 59.7558C63.9385 59.7558 64.2536 59.6844 64.532 59.5415C64.751 59.4291 64.9473 59.2724 65.1209 59.0716C65.5152 58.6155 65.7124 57.9868 65.7124 57.1855C65.7124 56.3918 65.5189 55.7523 65.1321 55.2671C65.1284 55.2624 65.1246 55.2578 65.1209 55.2531C64.9253 55.0116 64.7009 54.83 64.4478 54.7083C64.1905 54.5846 63.9035 54.5227 63.5867 54.5227C63.3088 54.5227 63.0498 54.5704 62.8097 54.6657C62.5282 54.7775 62.2727 54.9548 62.0433 55.1976C61.6181 55.6476 61.4056 56.3102 61.4056 57.1855C61.4056 58.0484 61.6151 58.6926 62.034 59.1179C62.2214 59.3081 62.4285 59.4557 62.6553 59.5609C62.9356 59.6908 63.2461 59.7558 63.5867 59.7558Z" fill="#000000" style="mix-blend-mode:plus-lighter" fill-opacity="0" fill-rule="evenodd" />
					<path id="合并" d="M41.0128 59.0517L42.1219 61.9734L45.2087 61.9734L45.1295 61.778L39.7189 48.4375L37.1681 48.4375L31.9215 61.778L31.8447 61.9734L34.7467 61.9734L35.8188 59.0517L41.0128 59.0517ZM34.6103 61.778L35.6824 58.8564L41.1476 58.8564L42.2566 61.778L44.9187 61.778L39.5874 48.6328L37.3012 48.6328L32.1314 61.778L34.6103 61.778ZM40.3732 56.7884L38.5528 52.0298L38.3663 51.5425L36.4458 56.7884L40.3732 56.7884ZM49.6581 61.0773C49.8512 61.302 50.0669 61.4919 50.3053 61.6468C50.431 61.7284 50.563 61.8004 50.7012 61.8626C50.7066 61.8651 50.7121 61.8675 50.7175 61.8699L50.7177 61.87C51.2062 62.087 51.7429 62.1955 52.3278 62.1955C52.8124 62.1955 53.2713 62.121 53.7047 61.9721L53.7048 61.9721C53.9768 61.8786 54.2387 61.7558 54.4905 61.6037C55.1436 61.2093 55.6642 60.6329 56.0524 59.8748C56.4405 59.1166 56.6346 58.2198 56.6346 57.1843Q56.6346 55.6125 56.0524 54.4752C55.6642 53.7171 55.1436 53.1408 54.4905 52.7463C54.2387 52.5942 53.9769 52.4715 53.705 52.378L53.7047 52.3779Q53.0546 52.1545 52.3278 52.1545Q51.5323 52.1545 50.8506 52.4333L50.8506 52.4333L50.8505 52.4333L50.8504 52.4334C50.7559 52.472 50.663 52.5147 50.5718 52.5614C50.4493 52.6241 50.3321 52.6943 50.2201 52.7722L50.22 52.7723Q49.7727 53.0834 49.4375 53.5557Q49.3543 53.673 49.2779 53.8003C49.2604 53.7036 49.2459 53.6053 49.2346 53.5054C49.2301 53.4653 49.226 53.4249 49.2225 53.3842C49.2102 53.2425 49.1978 53.1099 49.1855 52.9867L49.1301 52.3949L46.6717 52.3949L46.6717 66.0787L49.4628 66.0787L49.4628 60.8271C49.5251 60.9148 49.5902 60.9982 49.6581 61.0773ZM49.2675 65.8834L49.2675 60.2148L49.622 60.714Q49.9595 61.1892 50.4117 61.483Q50.4158 61.4856 50.4199 61.4883Q50.5921 61.5993 50.7811 61.6844L50.7905 61.6886L50.797 61.6915L50.797 61.6915Q51.4919 62.0002 52.3278 62.0002Q53.022 62.0002 53.6413 61.7874L53.6414 61.7874Q54.0296 61.6539 54.3895 61.4366Q54.511 61.3632 54.6261 61.2809Q55.3942 60.7318 55.8785 59.7858Q56.4393 58.6905 56.4393 57.1843Q56.4393 55.6596 55.8785 54.5642Q55.3942 53.6182 54.6261 53.0691Q54.511 52.9868 54.3895 52.9135Q54.0297 52.6961 53.6415 52.5627L53.6412 52.5626Q53.022 52.3499 52.3278 52.3499Q51.5709 52.3499 50.9248 52.6139L50.9244 52.6141L50.9243 52.6141L50.9237 52.6144Q50.79 52.6691 50.6608 52.7352Q50.4888 52.8233 50.3316 52.9326L50.3315 52.9327Q49.8075 53.2971 49.4454 53.9007L49.1786 54.3457L49.0858 53.8352Q49.0472 53.6229 49.028 53.4023L48.9911 53.0049L48.9522 52.5902L46.867 52.5902L46.867 65.8834L49.2675 65.8834ZM61.6012 61.0773C61.7942 61.302 62.0099 61.4919 62.2484 61.6468C62.374 61.7284 62.506 61.8004 62.6443 61.8626C62.6497 61.8651 62.6551 61.8675 62.6605 61.8699C63.1491 62.087 63.6859 62.1955 64.2709 62.1955C64.7554 62.1955 65.2144 62.121 65.6478 61.9721L65.6479 61.9721C65.9198 61.8786 66.1817 61.7558 66.4335 61.6037C67.0866 61.2093 67.6072 60.6329 67.9954 59.8748C68.3836 59.1166 68.5777 58.2198 68.5777 57.1843C68.5777 56.1364 68.3836 55.2334 67.9954 54.4752C67.6072 53.7171 67.0866 53.1408 66.4335 52.7463C66.1818 52.5942 65.92 52.4715 65.6481 52.378L65.6478 52.3779Q64.9977 52.1545 64.2709 52.1545C63.7405 52.1545 63.2481 52.2474 62.7937 52.4332L62.7937 52.4333L62.7935 52.4333L62.7934 52.4334C62.699 52.472 62.6061 52.5147 62.5149 52.5614C62.3924 52.6241 62.2752 52.6943 62.1632 52.7722L62.163 52.7723L62.163 52.7723Q61.7157 53.0834 61.3805 53.5558Q61.2973 53.6731 61.221 53.8003C61.2034 53.7036 61.189 53.6053 61.1777 53.5054C61.1731 53.4653 61.1691 53.4249 61.1656 53.3842C61.1532 53.2425 61.1409 53.1099 61.1286 52.9867L61.0731 52.3949L58.6147 52.3949L58.6147 66.0787L61.4058 66.0787L61.4058 60.8271C61.4681 60.9148 61.5332 60.9982 61.6012 61.0773ZM61.2105 65.8834L61.2105 60.2148L61.5651 60.714Q61.9026 61.1892 62.3548 61.483Q62.5307 61.5973 62.7244 61.6845L62.734 61.6888L62.74 61.6915Q63.4348 62.0002 64.2709 62.0002Q64.9647 62.0002 65.5836 61.7876L65.5843 61.7874Q65.5913 61.785 65.5981 61.7826Q65.9794 61.6499 66.3325 61.4366Q66.454 61.3632 66.5692 61.2808Q67.3372 60.7317 67.8216 59.7858Q68.3824 58.6904 68.3823 57.1843Q68.3823 55.6596 67.8216 54.5642Q67.3372 53.6183 66.5692 53.0692Q66.4541 52.9869 66.3325 52.9135Q65.9727 52.6961 65.5846 52.5627L65.5843 52.5626Q64.9651 52.3499 64.2709 52.3499Q63.514 52.3499 62.8682 52.6138L62.8676 52.614L62.8667 52.6144Q62.7333 52.669 62.6039 52.7352Q62.4318 52.8233 62.2747 52.9325L62.2745 52.9327Q61.7506 53.2971 61.3885 53.9007L61.1216 54.3457L61.0288 53.8352Q60.9902 53.6229 60.971 53.4011L60.9341 53.0047L60.8953 52.5902L58.8101 52.5902L58.8101 65.8834L61.2105 65.8834ZM38.2681 52.3789L36.7968 56.3978L36.7253 56.5931L40.0894 56.5931L40.0146 56.3978L38.4766 52.3774L38.3703 52.0996L38.2681 52.3789ZM52.6421 59.7332Q52.6602 59.7244 52.6781 59.7152Q52.6934 59.7074 52.7086 59.6993Q53.0524 59.5154 53.3256 59.1994Q53.3371 59.186 53.3485 59.1725Q53.9646 58.4371 53.9646 57.1855Q53.9646 55.9581 53.3722 55.1843Q53.357 55.1645 53.3414 55.1449L53.3332 55.1346L53.3296 55.1302Q53.0218 54.7501 52.6236 54.5491Q52.6066 54.5405 52.5893 54.5322Q52.5719 54.5239 52.5543 54.5158Q52.142 54.3274 51.6436 54.3274Q51.2085 54.3274 50.8277 54.4713Q50.8111 54.4776 50.7946 54.4841L50.7946 54.4842Q50.7769 54.4912 50.7594 54.4985Q50.3179 54.6829 49.9583 55.0635Q49.2672 55.7949 49.2672 57.1855Q49.2672 58.5599 49.9518 59.2549Q50.2456 59.5531 50.6006 59.7242Q50.6153 59.7312 50.6301 59.7381Q50.6474 59.7461 50.6648 59.7538Q51.1105 59.9511 51.6436 59.9511Q52.1961 59.9511 52.6421 59.7332ZM62.6076 59.7537Q63.0534 59.9511 63.5867 59.9511Q64.139 59.9511 64.585 59.7333Q64.6032 59.7245 64.6212 59.7152Q64.6364 59.7074 64.6514 59.6994Q64.9954 59.5155 65.2686 59.1994Q65.2802 59.186 65.2915 59.1725Q65.9077 58.4371 65.9077 57.1855Q65.9077 55.9571 65.3146 55.1834Q65.2999 55.1642 65.2848 55.1453L65.277 55.1355L65.2728 55.1304Q64.9643 54.7495 64.5653 54.5484Q64.5489 54.5402 64.5324 54.5322Q64.5149 54.5238 64.4973 54.5158Q64.0851 54.3274 63.5867 54.3274Q63.1507 54.3274 62.7694 54.4719Q62.7534 54.4779 62.7376 54.4842Q62.72 54.4912 62.7025 54.4985Q62.261 54.6829 61.9013 55.0635Q61.2103 55.7949 61.2103 57.1855Q61.2103 58.5599 61.8949 59.2549Q62.1887 59.5532 62.5438 59.7242Q62.5584 59.7313 62.5732 59.7381Q62.5903 59.746 62.6076 59.7537ZM51.6436 59.7558Q52.1713 59.7558 52.589 59.5415Q52.9174 59.3728 53.1778 59.0716C53.5722 58.6155 53.7693 57.9868 53.7693 57.1855Q53.7693 55.995 53.189 55.2671C53.1853 55.2624 53.1816 55.2578 53.1778 55.2531C52.9822 55.0116 52.7579 54.83 52.5047 54.7083C52.2474 54.5846 51.9604 54.5227 51.6436 54.5227C51.3658 54.5227 51.1068 54.5703 50.8668 54.6656L50.8666 54.6657C50.5851 54.7775 50.3297 54.9548 50.1002 55.1976Q49.4625 55.8726 49.4625 57.1855Q49.4625 58.4799 50.091 59.1179C50.2784 59.3081 50.4854 59.4557 50.7122 59.5609C50.9926 59.6908 51.3031 59.7558 51.6436 59.7558ZM64.532 59.5415C64.2536 59.6844 63.9385 59.7558 63.5867 59.7558C63.2461 59.7558 62.9356 59.6908 62.6553 59.5609C62.4285 59.4557 62.2214 59.3081 62.034 59.1179Q61.4056 58.4799 61.4056 57.1855Q61.4056 55.8726 62.0433 55.1976C62.2727 54.9548 62.5282 54.7775 62.8097 54.6657C63.0498 54.5704 63.3088 54.5227 63.5867 54.5227C63.9035 54.5227 64.1905 54.5846 64.4478 54.7083C64.7009 54.83 64.9253 55.0116 65.1209 55.2531C65.1246 55.2578 65.1284 55.2624 65.1321 55.2671C65.5189 55.7523 65.7124 56.3918 65.7124 57.1855Q65.7124 58.3875 65.1209 59.0716C64.9473 59.2724 64.751 59.4291 64.532 59.5415Z" fill="url(#paint_linear_2)" style="mix-blend-mode:plus-lighter" fill-opacity="0" fill-rule="evenodd" />
				</g>
			</g>
			<g id="组合 29390" filter="url(#filter_0)">
				<g data-pixso-skip-parse="true">
					<foreignObject width="64.453125" height="64.453125" x="17.773438" y="-32.226562">
						<div xmlns="http://www.w3.org/1999/xhtml" style="clip-path:url(#outline_mask_1);height:100%;backdrop-filter:blur(1.617628px);width:100%;-webkit-backdrop-filter:blur(1.617628px);" />
					</foreignObject>
				</g>
				<g filter="url(#filter_1)">
					<path id="椭圆形" d="M50 -32.2266C32.2018 -32.2266 17.7734 -17.7982 17.7734 -7.62939e-06C17.7734 17.7982 32.2018 32.2265 50 32.2265C67.7982 32.2265 82.2266 17.7982 82.2266 -7.62939e-06C82.2266 -17.7982 67.7982 -32.2266 50 -32.2266ZM50 -21.2891C61.7576 -21.2891 71.2891 -11.7576 71.2891 -7.62939e-06C71.2891 11.7576 61.7576 21.289 50 21.289C38.2424 21.289 28.7109 11.7576 28.7109 -7.62939e-06C28.7109 -11.7576 38.2424 -21.2891 50 -21.2891Z" fill="url(#paint_radial_3)" fill-rule="evenodd" />
					<path id="椭圆形" d="M50 -32.2266C32.2018 -32.2266 17.7734 -17.7982 17.7734 -7.62939e-06C17.7734 17.7982 32.2018 32.2265 50 32.2265C67.7982 32.2265 82.2266 17.7982 82.2266 -7.62939e-06C82.2266 -17.7982 67.7982 -32.2266 50 -32.2266ZM50 -21.2891C61.7576 -21.2891 71.2891 -11.7576 71.2891 -7.62939e-06C71.2891 11.7576 61.7576 21.289 50 21.289C38.2424 21.289 28.7109 11.7576 28.7109 -7.62939e-06C28.7109 -11.7576 38.2424 -21.2891 50 -21.2891Z" fill="url(#paint_linear_3)" fill-opacity="0" fill-rule="evenodd" />
					<path id="椭圆形" d="M17.7734 -7.62939e-06C17.7734 -17.7982 32.2018 -32.2266 50 -32.2266C67.7982 -32.2266 82.2266 -17.7982 82.2266 -7.62939e-06C82.2266 17.7982 67.7982 32.2265 50 32.2265C32.2018 32.2265 17.7734 17.7982 17.7734 -7.62939e-06ZM42.9539 -31.2589Q46.3902 -32.0312 50 -32.0312Q53.6099 -32.0312 57.0463 -31.2589Q59.8134 -30.6369 62.4679 -29.5142Q65.163 -28.3742 67.569 -26.7942Q70.2947 -25.0043 72.6495 -22.6495Q75.0038 -20.2953 76.7934 -17.5703Q78.374 -15.1637 79.5141 -12.468Q80.637 -9.81325 81.2589 -7.04598Q82.0312 -3.60978 82.0312 -7.62939e-06Q82.0312 3.6115 81.2582 7.04919Q80.6364 9.81482 79.5141 12.4679Q78.3739 15.1639 76.7932 17.5706Q75.0036 20.2954 72.6495 22.6495Q70.2953 25.0037 67.5704 26.7934Q65.1638 28.3739 62.4679 29.5141Q59.8147 30.6364 57.049 31.2583Q53.6114 32.0312 50 32.0312Q46.3902 32.0312 42.954 31.2589Q40.1867 30.637 37.5321 29.5141Q34.8363 28.374 32.4298 26.7934Q29.7047 25.0038 27.3505 22.6495Q24.9966 20.2956 23.2071 17.571Q21.6262 15.1641 20.4858 12.4679Q19.3637 9.81483 18.7418 7.04923Q17.9688 3.61152 17.9688 -7.62939e-06Q17.9688 -3.60981 18.7411 -7.04602Q19.363 -9.81327 20.4858 -12.468Q21.6259 -15.1634 23.2063 -17.5698Q24.996 -20.2951 27.3505 -22.6495Q29.7046 -25.0036 32.4294 -26.7932Q34.8361 -28.3739 37.5321 -29.5142Q40.1867 -30.637 42.9539 -31.2589ZM54.721 -20.9674Q52.4185 -21.4844 50 -21.4844Q47.5823 -21.4844 45.2806 -20.9678Q43.4211 -20.5504 41.6372 -19.7959Q39.8277 -19.0306 38.2124 -17.9694Q36.3861 -16.7696 34.8083 -15.1917Q33.2303 -13.6138 32.0304 -11.7874Q30.9694 -10.1722 30.2041 -8.36275Q29.4495 -6.57889 29.0322 -4.71935Q28.5156 -2.41765 28.5156 -7.62939e-06Q28.5156 2.41783 29.0323 4.71971Q29.4496 6.57905 30.2041 8.36274Q30.9697 10.173 32.0314 11.7888Q33.2309 13.6144 34.8083 15.1917Q36.3861 16.7695 38.2122 17.9693Q39.8276 19.0305 41.6372 19.7959Q43.4211 20.5505 45.2807 20.9678Q47.5824 21.4844 50 21.4844Q52.4181 21.4843 54.7202 20.9675Q56.5793 20.5502 58.3627 19.7959Q60.1728 19.0303 61.7885 17.9688Q63.6143 16.7692 65.1917 15.1917Q66.7684 13.615 67.9676 11.7902Q69.0299 10.1738 69.7959 8.36274Q70.5504 6.57904 70.9677 4.71968Q71.4844 2.41782 71.4844 -7.62939e-06Q71.4844 -2.41723 70.968 -4.71858Q70.5506 -6.57851 69.7959 -8.36275Q69.0305 -10.1724 67.9692 -11.7878Q66.7695 -13.614 65.1917 -15.1918Q63.6143 -16.7691 61.7887 -17.9687Q60.1729 -19.0303 58.3627 -19.7959Q56.5797 -20.5501 54.721 -20.9674ZM71.2891 -7.62939e-06C71.2891 -11.7576 61.7576 -21.2891 50 -21.2891C38.2424 -21.2891 28.7109 -11.7576 28.7109 -7.62939e-06C28.7109 11.7576 38.2424 21.289 50 21.289C61.7576 21.289 71.2891 11.7576 71.2891 -7.62939e-06Z" fill="rgb(151,151,151)" fill-opacity="0" fill-rule="evenodd" />
				</g>
				<g filter="url(#filter_2)">
					<path id="椭圆形" d="M82.2266 -7.62939e-06C82.2266 -17.7982 67.7982 -32.2266 50 -32.2266C32.2018 -32.2266 17.7734 -17.7982 17.7734 -7.62939e-06C17.7734 17.7982 32.2018 32.2265 50 32.2265C67.7982 32.2265 82.2266 17.7982 82.2266 -7.62939e-06ZM28.7109 -7.62939e-06C28.7109 -11.7576 38.2424 -21.2891 50 -21.2891C61.7576 -21.2891 71.289 -11.7576 71.289 -7.62939e-06C71.289 11.7576 61.7576 21.289 50 21.289C38.2424 21.289 28.7109 11.7576 28.7109 -7.62939e-06Z" fill="rgb(255,255,255)" fill-opacity="0.00999999978" fill-rule="evenodd" />
					<path id="椭圆形" d="M50 -32.2266C67.7982 -32.2266 82.2266 -17.7982 82.2266 -7.62939e-06C82.2266 17.7982 67.7982 32.2265 50 32.2265C32.2018 32.2265 17.7734 17.7982 17.7734 -7.62939e-06C17.7734 -17.7982 32.2018 -32.2266 50 -32.2266ZM42.984 -31.1046C45.265 -31.6176 47.6037 -31.8741 50 -31.8741C52.396 -31.8741 54.7344 -31.6177 57.0151 -31.1048C58.8496 -30.6923 60.6468 -30.1138 62.4067 -29.3694C64.1951 -28.613 65.8876 -27.7105 67.4841 -26.662C69.2919 -25.4747 70.9766 -24.1002 72.5384 -22.5384C74.1004 -20.9763 75.4752 -19.2913 76.6626 -17.4832C77.7109 -15.8869 78.6131 -14.1948 79.3694 -12.4067C80.1133 -10.6479 80.6916 -8.85182 81.104 -7.01843C81.6174 -4.73671 81.8741 -2.39723 81.8741 -3.8147e-06C81.8741 2.39675 81.6176 4.73579 81.1044 7.01711C80.6919 8.85094 80.1136 10.6475 79.3694 12.4067C78.6125 14.1963 77.7093 15.8898 76.6599 17.4872C75.4731 19.2938 74.0993 20.9775 72.5384 22.5384C70.9767 24.1002 69.2919 25.4747 67.4842 26.6619C65.8876 27.7105 64.1951 28.613 62.4067 29.3694C60.6478 30.1134 58.8516 30.6917 57.0182 31.1041C54.7365 31.6175 52.3971 31.8741 50 31.8741C47.603 31.8741 45.2637 31.6175 42.9821 31.1042C41.1485 30.6917 39.3523 30.1134 37.5933 29.3694C35.8052 28.6131 34.113 27.7108 32.5167 26.6625C30.7086 25.4751 29.0236 24.1004 27.4616 22.5384C25.9 20.9769 24.5257 19.2924 23.3385 17.485C22.2898 15.8882 21.3871 14.1954 20.6306 12.4067C19.8862 10.6469 19.3077 8.84967 18.8952 7.01517C18.3823 4.73444 18.1259 2.39605 18.1259 -7.62939e-06C18.1259 -2.39613 18.3823 -4.73459 18.8952 -7.01537C19.3078 -8.8498 19.8862 -10.6469 20.6306 -12.4067C21.3867 -14.1944 22.2887 -15.8862 23.3368 -17.4822C24.5243 -19.2907 25.8993 -20.9761 27.4616 -22.5384C29.0238 -24.1007 30.7091 -25.4755 32.5174 -26.663C34.1135 -27.7111 35.8055 -28.6133 37.5933 -29.3694C39.3529 -30.1137 41.1498 -30.6921 42.984 -31.1046ZM54.7501 -21.122C53.2055 -21.4683 51.6222 -21.6415 50 -21.6415C48.3775 -21.6415 46.7939 -21.4683 45.2491 -21.1218C43.9993 -20.8415 42.775 -20.4478 41.576 -19.9407C40.3601 -19.4263 39.2094 -18.8126 38.1241 -18.0994C36.8985 -17.2941 35.7561 -16.3619 34.6972 -15.3029C33.6381 -14.2438 32.7059 -13.1015 31.9005 -11.8758C31.1874 -10.7905 30.5736 -9.63989 30.0593 -8.42396C29.5522 -7.22487 29.1584 -6.00034 28.8781 -4.75037C28.5317 -3.20576 28.3585 -1.6223 28.3585 -3.8147e-06C28.3585 1.6228 28.5318 3.20673 28.8784 4.75177C29.1587 6.00126 29.5524 7.22532 30.0593 8.42395C30.5737 9.64 31.1875 10.7907 31.9007 11.8761C32.7061 13.1016 33.6382 14.2439 34.6972 15.3028C35.7557 16.3614 36.8975 17.2933 38.1227 18.0985C39.2084 18.812 40.3595 19.4261 41.576 19.9406C42.7741 20.4474 43.9975 20.8409 45.2463 21.1212C46.792 21.468 48.3765 21.6415 50 21.6415C51.6232 21.6415 53.2076 21.4681 54.753 21.1213C56.0021 20.841 57.2257 20.4475 58.4239 19.9406C59.641 19.4259 60.7925 18.8115 61.8786 18.0976C63.1032 17.2926 64.2446 16.361 65.3028 15.3028C66.3614 14.2442 67.2933 13.1024 68.0985 11.8773C68.8121 10.7915 69.4261 9.64045 69.9407 8.42394C70.4474 7.2259 70.8409 6.00244 71.1212 4.75357C71.468 3.20797 71.6415 1.62344 71.6415 -7.62939e-06C71.6415 -1.62331 71.4681 -3.2077 71.1213 -4.75318C70.841 -6.00219 70.4474 -7.22578 69.9407 -8.42396C69.426 -9.64062 68.8119 -10.7919 68.0982 -11.8777C67.2931 -13.1027 66.3613 -14.2444 65.3028 -15.3029C64.2439 -16.3618 63.1015 -17.294 61.8759 -18.0994C60.7906 -18.8126 59.6399 -19.4263 58.4239 -19.9407C57.2248 -20.4479 56.0001 -20.8416 54.7501 -21.122ZM50 -21.2891C38.2424 -21.2891 28.7109 -11.7576 28.7109 -7.62939e-06C28.7109 11.7576 38.2424 21.289 50 21.289C61.7576 21.289 71.289 11.7576 71.289 -7.62939e-06C71.289 -11.7576 61.7576 -21.2891 50 -21.2891Z" fill="url(#paint_linear_4)" fill-opacity="0" fill-rule="evenodd" />
				</g>
				<g filter="url(#filter_3)">
					<path id="椭圆形" d="M82.2266 -7.62939e-06C82.2266 -17.7982 67.7982 -32.2266 50 -32.2266C32.2018 -32.2266 17.7734 -17.7982 17.7734 -7.62939e-06C17.7734 17.7982 32.2018 32.2265 50 32.2265C67.7982 32.2265 82.2266 17.7982 82.2266 -7.62939e-06ZM28.7109 -7.62939e-06C28.7109 -11.7576 38.2424 -21.2891 50 -21.2891C61.7576 -21.2891 71.289 -11.7576 71.289 -7.62939e-06C71.289 11.7576 61.7576 21.289 50 21.289C38.2424 21.289 28.7109 11.7576 28.7109 -7.62939e-06Z" fill="rgb(255,255,255)" fill-opacity="0.00999999978" fill-rule="evenodd" />
					<path id="椭圆形" d="M50 -32.2266C67.7982 -32.2266 82.2266 -17.7982 82.2266 -7.62939e-06C82.2266 17.7982 67.7982 32.2265 50 32.2265C32.2018 32.2265 17.7734 17.7982 17.7734 -7.62939e-06C17.7734 -17.7982 32.2018 -32.2266 50 -32.2266ZM42.984 -31.1046C45.265 -31.6176 47.6037 -31.8741 50 -31.8741C52.396 -31.8741 54.7344 -31.6177 57.0151 -31.1048C58.8496 -30.6923 60.6468 -30.1138 62.4067 -29.3694C64.1951 -28.613 65.8876 -27.7105 67.4841 -26.662C69.2919 -25.4747 70.9766 -24.1002 72.5384 -22.5384C74.1004 -20.9763 75.4752 -19.2913 76.6626 -17.4832C77.7109 -15.8869 78.6131 -14.1948 79.3694 -12.4067C80.1133 -10.6479 80.6916 -8.85182 81.104 -7.01843C81.6174 -4.73671 81.8741 -2.39723 81.8741 -3.8147e-06C81.8741 2.39675 81.6176 4.73579 81.1044 7.01711C80.6919 8.85094 80.1136 10.6475 79.3694 12.4067C78.6125 14.1963 77.7093 15.8898 76.6599 17.4872C75.4731 19.2938 74.0993 20.9775 72.5384 22.5384C70.9767 24.1002 69.2919 25.4747 67.4842 26.6619C65.8876 27.7105 64.1951 28.613 62.4067 29.3694C60.6478 30.1134 58.8516 30.6917 57.0182 31.1041C54.7365 31.6175 52.3971 31.8741 50 31.8741C47.603 31.8741 45.2637 31.6175 42.9821 31.1042C41.1485 30.6917 39.3523 30.1134 37.5933 29.3694C35.8052 28.6131 34.113 27.7108 32.5167 26.6625C30.7086 25.4751 29.0236 24.1004 27.4616 22.5384C25.9 20.9769 24.5257 19.2924 23.3385 17.485C22.2898 15.8882 21.3871 14.1954 20.6306 12.4067C19.8862 10.6469 19.3077 8.84967 18.8952 7.01517C18.3823 4.73444 18.1259 2.39605 18.1259 -7.62939e-06C18.1259 -2.39613 18.3823 -4.73459 18.8952 -7.01537C19.3078 -8.8498 19.8862 -10.6469 20.6306 -12.4067C21.3867 -14.1944 22.2887 -15.8862 23.3368 -17.4822C24.5243 -19.2907 25.8993 -20.9761 27.4616 -22.5384C29.0238 -24.1007 30.7091 -25.4755 32.5174 -26.663C34.1135 -27.7111 35.8055 -28.6133 37.5933 -29.3694C39.3529 -30.1137 41.1498 -30.6921 42.984 -31.1046ZM54.7501 -21.122C53.2055 -21.4683 51.6222 -21.6415 50 -21.6415C48.3775 -21.6415 46.7939 -21.4683 45.2491 -21.1218C43.9993 -20.8415 42.775 -20.4478 41.576 -19.9407C40.3601 -19.4263 39.2094 -18.8126 38.1241 -18.0994C36.8985 -17.2941 35.7561 -16.3619 34.6972 -15.3029C33.6381 -14.2438 32.7059 -13.1015 31.9005 -11.8758C31.1874 -10.7905 30.5736 -9.63989 30.0593 -8.42396C29.5522 -7.22487 29.1584 -6.00034 28.8781 -4.75037C28.5317 -3.20576 28.3585 -1.6223 28.3585 -3.8147e-06C28.3585 1.6228 28.5318 3.20673 28.8784 4.75177C29.1587 6.00126 29.5524 7.22532 30.0593 8.42395C30.5737 9.64 31.1875 10.7907 31.9007 11.8761C32.7061 13.1016 33.6382 14.2439 34.6972 15.3028C35.7557 16.3614 36.8975 17.2933 38.1227 18.0985C39.2084 18.812 40.3595 19.4261 41.576 19.9406C42.7741 20.4474 43.9975 20.8409 45.2463 21.1212C46.792 21.468 48.3765 21.6415 50 21.6415C51.6232 21.6415 53.2076 21.4681 54.753 21.1213C56.0021 20.841 57.2257 20.4475 58.4239 19.9406C59.641 19.4259 60.7925 18.8115 61.8786 18.0976C63.1032 17.2926 64.2446 16.361 65.3028 15.3028C66.3614 14.2442 67.2933 13.1024 68.0985 11.8773C68.8121 10.7915 69.4261 9.64045 69.9407 8.42394C70.4474 7.2259 70.8409 6.00244 71.1212 4.75357C71.468 3.20797 71.6415 1.62344 71.6415 -7.62939e-06C71.6415 -1.62331 71.4681 -3.2077 71.1213 -4.75318C70.841 -6.00219 70.4474 -7.22578 69.9407 -8.42396C69.426 -9.64062 68.8119 -10.7919 68.0982 -11.8777C67.2931 -13.1027 66.3613 -14.2444 65.3028 -15.3029C64.2439 -16.3618 63.1015 -17.294 61.8759 -18.0994C60.7906 -18.8126 59.6399 -19.4263 58.4239 -19.9407C57.2248 -20.4479 56.0001 -20.8416 54.7501 -21.122ZM50 -21.2891C38.2424 -21.2891 28.7109 -11.7576 28.7109 -7.62939e-06C28.7109 11.7576 38.2424 21.289 50 21.289C61.7576 21.289 71.289 11.7576 71.289 -7.62939e-06C71.289 -11.7576 61.7576 -21.2891 50 -21.2891Z" fill="url(#paint_linear_5)" fill-opacity="0" fill-rule="evenodd" />
				</g>
				<g opacity="0.639999986" filter="url(#filter_4)">
					<path id="椭圆形" d="M82.2266 -7.62939e-06C82.2266 -17.7982 67.7982 -32.2266 50 -32.2266C32.2018 -32.2266 17.7734 -17.7982 17.7734 -7.62939e-06C17.7734 17.7982 32.2018 32.2265 50 32.2265C67.7982 32.2265 82.2266 17.7982 82.2266 -7.62939e-06ZM28.7109 -7.62939e-06C28.7109 -11.7576 38.2424 -21.2891 50 -21.2891C61.7576 -21.2891 71.289 -11.7576 71.289 -7.62939e-06C71.289 11.7576 61.7576 21.289 50 21.289C38.2424 21.289 28.7109 11.7576 28.7109 -7.62939e-06Z" fill="rgb(255,255,255)" fill-opacity="0.00999999978" fill-rule="evenodd" />
					<path id="椭圆形" d="M50 -32.2266C67.7982 -32.2266 82.2266 -17.7982 82.2266 -7.62939e-06C82.2266 17.7982 67.7982 32.2265 50 32.2265C32.2018 32.2265 17.7734 17.7982 17.7734 -7.62939e-06C17.7734 -17.7982 32.2018 -32.2266 50 -32.2266ZM42.984 -31.1046C45.265 -31.6176 47.6037 -31.8741 50 -31.8741C52.396 -31.8741 54.7344 -31.6177 57.0151 -31.1048C58.8496 -30.6923 60.6468 -30.1138 62.4067 -29.3694C64.1951 -28.613 65.8876 -27.7105 67.4841 -26.662C69.2919 -25.4747 70.9766 -24.1002 72.5384 -22.5384C74.1004 -20.9763 75.4752 -19.2913 76.6626 -17.4832C77.7109 -15.8869 78.6131 -14.1948 79.3694 -12.4067C80.1133 -10.6479 80.6916 -8.85182 81.104 -7.01843C81.6174 -4.73671 81.8741 -2.39723 81.8741 -3.8147e-06C81.8741 2.39675 81.6176 4.73579 81.1044 7.01711C80.6919 8.85094 80.1136 10.6475 79.3694 12.4067C78.6125 14.1963 77.7093 15.8898 76.6599 17.4872C75.4731 19.2938 74.0993 20.9775 72.5384 22.5384C70.9767 24.1002 69.2919 25.4747 67.4842 26.6619C65.8876 27.7105 64.1951 28.613 62.4067 29.3694C60.6478 30.1134 58.8516 30.6917 57.0182 31.1041C54.7365 31.6175 52.3971 31.8741 50 31.8741C47.603 31.8741 45.2637 31.6175 42.9821 31.1042C41.1485 30.6917 39.3523 30.1134 37.5933 29.3694C35.8052 28.6131 34.113 27.7108 32.5167 26.6625C30.7086 25.4751 29.0236 24.1004 27.4616 22.5384C25.9 20.9769 24.5257 19.2924 23.3385 17.485C22.2898 15.8882 21.3871 14.1954 20.6306 12.4067C19.8862 10.6469 19.3077 8.84967 18.8952 7.01517C18.3823 4.73444 18.1259 2.39605 18.1259 -7.62939e-06C18.1259 -2.39613 18.3823 -4.73459 18.8952 -7.01537C19.3078 -8.8498 19.8862 -10.6469 20.6306 -12.4067C21.3867 -14.1944 22.2887 -15.8862 23.3368 -17.4822C24.5243 -19.2907 25.8993 -20.9761 27.4616 -22.5384C29.0238 -24.1007 30.7091 -25.4755 32.5174 -26.663C34.1135 -27.7111 35.8055 -28.6133 37.5933 -29.3694C39.3529 -30.1137 41.1498 -30.6921 42.984 -31.1046ZM54.7501 -21.122C53.2055 -21.4683 51.6222 -21.6415 50 -21.6415C48.3775 -21.6415 46.7939 -21.4683 45.2491 -21.1218C43.9993 -20.8415 42.775 -20.4478 41.576 -19.9407C40.3601 -19.4263 39.2094 -18.8126 38.1241 -18.0994C36.8985 -17.2941 35.7561 -16.3619 34.6972 -15.3029C33.6381 -14.2438 32.7059 -13.1015 31.9005 -11.8758C31.1874 -10.7905 30.5736 -9.63989 30.0593 -8.42396C29.5522 -7.22487 29.1584 -6.00034 28.8781 -4.75037C28.5317 -3.20576 28.3585 -1.6223 28.3585 -3.8147e-06C28.3585 1.6228 28.5318 3.20673 28.8784 4.75177C29.1587 6.00126 29.5524 7.22532 30.0593 8.42395C30.5737 9.64 31.1875 10.7907 31.9007 11.8761C32.7061 13.1016 33.6382 14.2439 34.6972 15.3028C35.7557 16.3614 36.8975 17.2933 38.1227 18.0985C39.2084 18.812 40.3595 19.4261 41.576 19.9406C42.7741 20.4474 43.9975 20.8409 45.2463 21.1212C46.792 21.468 48.3765 21.6415 50 21.6415C51.6232 21.6415 53.2076 21.4681 54.753 21.1213C56.0021 20.841 57.2257 20.4475 58.4239 19.9406C59.641 19.4259 60.7925 18.8115 61.8786 18.0976C63.1032 17.2926 64.2446 16.361 65.3028 15.3028C66.3614 14.2442 67.2933 13.1024 68.0985 11.8773C68.8121 10.7915 69.4261 9.64045 69.9407 8.42394C70.4474 7.2259 70.8409 6.00244 71.1212 4.75357C71.468 3.20797 71.6415 1.62344 71.6415 -7.62939e-06C71.6415 -1.62331 71.4681 -3.2077 71.1213 -4.75318C70.841 -6.00219 70.4474 -7.22578 69.9407 -8.42396C69.426 -9.64062 68.8119 -10.7919 68.0982 -11.8777C67.2931 -13.1027 66.3613 -14.2444 65.3028 -15.3029C64.2439 -16.3618 63.1015 -17.294 61.8759 -18.0994C60.7906 -18.8126 59.6399 -19.4263 58.4239 -19.9407C57.2248 -20.4479 56.0001 -20.8416 54.7501 -21.122ZM50 -21.2891C38.2424 -21.2891 28.7109 -11.7576 28.7109 -7.62939e-06C28.7109 11.7576 38.2424 21.289 50 21.289C61.7576 21.289 71.289 11.7576 71.289 -7.62939e-06C71.289 -11.7576 61.7576 -21.2891 50 -21.2891Z" fill="url(#paint_linear_6)" fill-opacity="0" fill-rule="evenodd" />
				</g>
			</g>
		</g>
		<g filter="url(#filter_5)">
			<rect id="矩形 542480" width="100.000000" height="100.000000" x="0.000000" y="0.000000" rx="25.781250" fill="rgb(255,255,255)" fill-opacity="0.00999999978" />
		</g>
		<rect id="应用市场" width="99.804688" height="99.804688" x="0.097656" y="0.097656" rx="25.683594" stroke="url(#paint_radial_2)" stroke-opacity="0" stroke-width="0.195312" />
		<rect id="应用市场" width="99.804688" height="99.804688" x="0.097656" y="0.097656" rx="25.683594" stroke="rgb(0,0,0)" stroke-opacity="0" stroke-width="0.195312" customGradient="url(#custom_gradient_0)" />
	</g>
</svg>
